<svg width="244" height="386" viewBox="0 0 244 386" fill="none" xmlns="http://www.w3.org/2000/svg">
<g filter="url(#filter0_dd)">
<rect width="173.123" height="261.001" rx="10" transform="matrix(1 0 0.00207135 0.999998 31 54)" fill="#9F19F1"/>
</g>
<g filter="url(#filter1_dd)">
<path d="M58.9442 116.04C58.9442 111.427 59.7709 107.813 61.4242 105.2C63.1042 102.587 65.8776 101.28 69.7442 101.28C73.6109 101.28 76.3709 102.587 78.0242 105.2C79.7042 107.813 80.5442 111.427 80.5442 116.04C80.5442 120.68 79.7042 124.32 78.0242 126.96C76.3709 129.6 73.6109 130.92 69.7442 130.92C65.8776 130.92 63.1042 129.6 61.4242 126.96C59.7709 124.32 58.9442 120.68 58.9442 116.04ZM75.0242 116.04C75.0242 114.067 74.8909 112.413 74.6242 111.08C74.3842 109.72 73.8776 108.613 73.1042 107.76C72.3576 106.907 71.2376 106.48 69.7442 106.48C68.2509 106.48 67.1176 106.907 66.3442 107.76C65.5976 108.613 65.0909 109.72 64.8242 111.08C64.5842 112.413 64.4642 114.067 64.4642 116.04C64.4642 118.067 64.5842 119.773 64.8242 121.16C65.0642 122.52 65.5709 123.627 66.3442 124.48C67.1176 125.307 68.2509 125.72 69.7442 125.72C71.2376 125.72 72.3709 125.307 73.1442 124.48C73.9176 123.627 74.4242 122.52 74.6642 121.16C74.9042 119.773 75.0242 118.067 75.0242 116.04ZM84.1236 107V101.84H93.7636V131H88.0036V107H84.1236Z" fill="white"/>
</g>
<path d="M197.5 334.5C197.5 362.653 174.009 385.5 145 385.5C115.991 385.5 92.5 362.653 92.5 334.5C92.5 306.347 115.991 283.5 145 283.5C174.009 283.5 197.5 306.347 197.5 334.5Z" stroke="white" stroke-opacity="0.34"/>
<path d="M130.5 51.5C130.5 79.6531 107.009 102.5 78 102.5C48.9914 102.5 25.5 79.6531 25.5 51.5C25.5 23.3469 48.9914 0.5 78 0.5C107.009 0.5 130.5 23.3469 130.5 51.5Z" stroke="white" stroke-opacity="0.34"/>
<path d="M105.5 78.5C105.5 106.653 82.0086 129.5 53 129.5C23.9914 129.5 0.5 106.653 0.5 78.5C0.5 50.3469 23.9914 27.5 53 27.5C82.0086 27.5 105.5 50.3469 105.5 78.5Z" stroke="white" stroke-opacity="0.34"/>
<path d="M243.5 298.5C243.5 326.653 220.009 349.5 191 349.5C161.991 349.5 138.5 326.653 138.5 298.5C138.5 270.347 161.991 247.5 191 247.5C220.009 247.5 243.5 270.347 243.5 298.5Z" stroke="white" stroke-opacity="0.34"/>
<defs>
<filter id="filter0_dd" x="27.0208" y="54" width="181.622" height="269" filterUnits="userSpaceOnUse" color-interpolation-filters="sRGB">
<feFlood flood-opacity="0" result="BackgroundImageFix"/>
<feColorMatrix in="SourceAlpha" type="matrix" values="0 0 0 0 0 0 0 0 0 0 0 0 0 0 0 0 0 0 127 0" result="hardAlpha"/>
<feOffset dy="4"/>
<feGaussianBlur stdDeviation="2"/>
<feComposite in2="hardAlpha" operator="out"/>
<feColorMatrix type="matrix" values="0 0 0 0 0 0 0 0 0 0 0 0 0 0 0 0 0 0 0.25 0"/>
<feBlend mode="normal" in2="BackgroundImageFix" result="effect1_dropShadow"/>
<feColorMatrix in="SourceAlpha" type="matrix" values="0 0 0 0 0 0 0 0 0 0 0 0 0 0 0 0 0 0 127 0" result="hardAlpha"/>
<feOffset dy="4"/>
<feGaussianBlur stdDeviation="2"/>
<feComposite in2="hardAlpha" operator="out"/>
<feColorMatrix type="matrix" values="0 0 0 0 0 0 0 0 0 0 0 0 0 0 0 0 0 0 0.25 0"/>
<feBlend mode="normal" in2="effect1_dropShadow" result="effect2_dropShadow"/>
<feBlend mode="normal" in="SourceGraphic" in2="effect2_dropShadow" result="shape"/>
</filter>
<filter id="filter1_dd" x="54.9442" y="101.28" width="42.8194" height="37.72" filterUnits="userSpaceOnUse" color-interpolation-filters="sRGB">
<feFlood flood-opacity="0" result="BackgroundImageFix"/>
<feColorMatrix in="SourceAlpha" type="matrix" values="0 0 0 0 0 0 0 0 0 0 0 0 0 0 0 0 0 0 127 0" result="hardAlpha"/>
<feOffset dy="4"/>
<feGaussianBlur stdDeviation="2"/>
<feComposite in2="hardAlpha" operator="out"/>
<feColorMatrix type="matrix" values="0 0 0 0 0 0 0 0 0 0 0 0 0 0 0 0 0 0 0.25 0"/>
<feBlend mode="normal" in2="BackgroundImageFix" result="effect1_dropShadow"/>
<feColorMatrix in="SourceAlpha" type="matrix" values="0 0 0 0 0 0 0 0 0 0 0 0 0 0 0 0 0 0 127 0" result="hardAlpha"/>
<feOffset dy="4"/>
<feGaussianBlur stdDeviation="2"/>
<feComposite in2="hardAlpha" operator="out"/>
<feColorMatrix type="matrix" values="0 0 0 0 0 0 0 0 0 0 0 0 0 0 0 0 0 0 0.25 0"/>
<feBlend mode="normal" in2="effect1_dropShadow" result="effect2_dropShadow"/>
<feBlend mode="normal" in="SourceGraphic" in2="effect2_dropShadow" result="shape"/>
</filter>
</defs>
</svg>
