<svg width="240" height="384" viewBox="0 0 240 384" fill="none" xmlns="http://www.w3.org/2000/svg">
<g filter="url(#filter0_dd)">
<rect width="173.123" height="261.001" rx="10" transform="matrix(1 0 0.00207135 0.999998 27 52)" fill="#E35A20"/>
</g>
<g filter="url(#filter1_dd)">
<ellipse cx="73" cy="112" rx="33" ry="31" fill="#F8D72C"/>
</g>
<g filter="url(#filter2_dd)">
<path d="M49.2177 113.04C49.2177 108.427 50.0443 104.813 51.6977 102.2C53.3777 99.5867 56.151 98.28 60.0177 98.28C63.8843 98.28 66.6443 99.5867 68.2977 102.2C69.9777 104.813 70.8177 108.427 70.8177 113.04C70.8177 117.68 69.9777 121.32 68.2977 123.96C66.6443 126.6 63.8843 127.92 60.0177 127.92C56.151 127.92 53.3777 126.6 51.6977 123.96C50.0443 121.32 49.2177 117.68 49.2177 113.04ZM65.2977 113.04C65.2977 111.067 65.1643 109.413 64.8977 108.08C64.6577 106.72 64.151 105.613 63.3777 104.76C62.631 103.907 61.511 103.48 60.0177 103.48C58.5243 103.48 57.391 103.907 56.6177 104.76C55.871 105.613 55.3643 106.72 55.0977 108.08C54.8577 109.413 54.7377 111.067 54.7377 113.04C54.7377 115.067 54.8577 116.773 55.0977 118.16C55.3377 119.52 55.8443 120.627 56.6177 121.48C57.391 122.307 58.5243 122.72 60.0177 122.72C61.511 122.72 62.6443 122.307 63.4177 121.48C64.191 120.627 64.6977 119.52 64.9377 118.16C65.1777 116.773 65.2977 115.067 65.2977 113.04ZM75.157 106.52C75.2904 103.853 76.2237 101.8 77.957 100.36C79.717 98.8933 82.0237 98.16 84.877 98.16C86.8237 98.16 88.4904 98.5067 89.877 99.2C91.2637 99.8667 92.3037 100.787 92.997 101.96C93.717 103.107 94.077 104.413 94.077 105.88C94.077 107.56 93.637 108.987 92.757 110.16C91.9037 111.307 90.877 112.08 89.677 112.48V112.64C91.2237 113.12 92.4237 113.973 93.277 115.2C94.157 116.427 94.597 118 94.597 119.92C94.597 121.52 94.2237 122.947 93.477 124.2C92.757 125.453 91.677 126.44 90.237 127.16C88.8237 127.853 87.117 128.2 85.117 128.2C82.1037 128.2 79.6504 127.44 77.757 125.92C75.8637 124.4 74.8637 122.16 74.757 119.2H80.197C80.2504 120.507 80.6904 121.56 81.517 122.36C82.3704 123.133 83.5304 123.52 84.997 123.52C86.357 123.52 87.397 123.147 88.117 122.4C88.8637 121.627 89.237 120.64 89.237 119.44C89.237 117.84 88.7304 116.693 87.717 116C86.7037 115.307 85.1304 114.96 82.997 114.96H81.837V110.36H82.997C86.7837 110.36 88.677 109.093 88.677 106.56C88.677 105.413 88.3304 104.52 87.637 103.88C86.9704 103.24 85.997 102.92 84.717 102.92C83.4637 102.92 82.4904 103.267 81.797 103.96C81.1304 104.627 80.7437 105.48 80.637 106.52H75.157Z" fill="white"/>
</g>
<path d="M239.5 302.5C239.5 330.653 216.009 353.5 187 353.5C157.991 353.5 134.5 330.653 134.5 302.5C134.5 274.347 157.991 251.5 187 251.5C216.009 251.5 239.5 274.347 239.5 302.5Z" stroke="white" stroke-opacity="0.34"/>
<path d="M186.5 332.5C186.5 360.653 163.009 383.5 134 383.5C104.991 383.5 81.5 360.653 81.5 332.5C81.5 304.347 104.991 281.5 134 281.5C163.009 281.5 186.5 304.347 186.5 332.5Z" stroke="white" stroke-opacity="0.34"/>
<path d="M105.5 73.5C105.5 101.653 82.0086 124.5 53 124.5C23.9914 124.5 0.5 101.653 0.5 73.5C0.5 45.3469 23.9914 22.5 53 22.5C82.0086 22.5 105.5 45.3469 105.5 73.5Z" stroke="white" stroke-opacity="0.34"/>
<path d="M126.5 51.5C126.5 79.6531 103.009 102.5 74 102.5C44.9914 102.5 21.5 79.6531 21.5 51.5C21.5 23.3469 44.9914 0.5 74 0.5C103.009 0.5 126.5 23.3469 126.5 51.5Z" stroke="white" stroke-opacity="0.34"/>
<defs>
<filter id="filter0_dd" x="23.0208" y="52" width="181.622" height="269" filterUnits="userSpaceOnUse" color-interpolation-filters="sRGB">
<feFlood flood-opacity="0" result="BackgroundImageFix"/>
<feColorMatrix in="SourceAlpha" type="matrix" values="0 0 0 0 0 0 0 0 0 0 0 0 0 0 0 0 0 0 127 0" result="hardAlpha"/>
<feOffset dy="4"/>
<feGaussianBlur stdDeviation="2"/>
<feComposite in2="hardAlpha" operator="out"/>
<feColorMatrix type="matrix" values="0 0 0 0 0 0 0 0 0 0 0 0 0 0 0 0 0 0 0.25 0"/>
<feBlend mode="normal" in2="BackgroundImageFix" result="effect1_dropShadow"/>
<feColorMatrix in="SourceAlpha" type="matrix" values="0 0 0 0 0 0 0 0 0 0 0 0 0 0 0 0 0 0 127 0" result="hardAlpha"/>
<feOffset dy="4"/>
<feGaussianBlur stdDeviation="2"/>
<feComposite in2="hardAlpha" operator="out"/>
<feColorMatrix type="matrix" values="0 0 0 0 0 0 0 0 0 0 0 0 0 0 0 0 0 0 0.25 0"/>
<feBlend mode="normal" in2="effect1_dropShadow" result="effect2_dropShadow"/>
<feBlend mode="normal" in="SourceGraphic" in2="effect2_dropShadow" result="shape"/>
</filter>
<filter id="filter1_dd" x="36" y="81" width="74" height="70" filterUnits="userSpaceOnUse" color-interpolation-filters="sRGB">
<feFlood flood-opacity="0" result="BackgroundImageFix"/>
<feColorMatrix in="SourceAlpha" type="matrix" values="0 0 0 0 0 0 0 0 0 0 0 0 0 0 0 0 0 0 127 0" result="hardAlpha"/>
<feOffset dy="4"/>
<feGaussianBlur stdDeviation="2"/>
<feComposite in2="hardAlpha" operator="out"/>
<feColorMatrix type="matrix" values="0 0 0 0 0 0 0 0 0 0 0 0 0 0 0 0 0 0 0.25 0"/>
<feBlend mode="normal" in2="BackgroundImageFix" result="effect1_dropShadow"/>
<feColorMatrix in="SourceAlpha" type="matrix" values="0 0 0 0 0 0 0 0 0 0 0 0 0 0 0 0 0 0 127 0" result="hardAlpha"/>
<feOffset dy="4"/>
<feGaussianBlur stdDeviation="2"/>
<feComposite in2="hardAlpha" operator="out"/>
<feColorMatrix type="matrix" values="0 0 0 0 0 0 0 0 0 0 0 0 0 0 0 0 0 0 0.25 0"/>
<feBlend mode="normal" in2="effect1_dropShadow" result="effect2_dropShadow"/>
<feBlend mode="normal" in="SourceGraphic" in2="effect2_dropShadow" result="shape"/>
</filter>
<filter id="filter2_dd" x="45.2177" y="98.16" width="53.3794" height="38.04" filterUnits="userSpaceOnUse" color-interpolation-filters="sRGB">
<feFlood flood-opacity="0" result="BackgroundImageFix"/>
<feColorMatrix in="SourceAlpha" type="matrix" values="0 0 0 0 0 0 0 0 0 0 0 0 0 0 0 0 0 0 127 0" result="hardAlpha"/>
<feOffset dy="4"/>
<feGaussianBlur stdDeviation="2"/>
<feComposite in2="hardAlpha" operator="out"/>
<feColorMatrix type="matrix" values="0 0 0 0 0 0 0 0 0 0 0 0 0 0 0 0 0 0 0.25 0"/>
<feBlend mode="normal" in2="BackgroundImageFix" result="effect1_dropShadow"/>
<feColorMatrix in="SourceAlpha" type="matrix" values="0 0 0 0 0 0 0 0 0 0 0 0 0 0 0 0 0 0 127 0" result="hardAlpha"/>
<feOffset dy="4"/>
<feGaussianBlur stdDeviation="2"/>
<feComposite in2="hardAlpha" operator="out"/>
<feColorMatrix type="matrix" values="0 0 0 0 0 0 0 0 0 0 0 0 0 0 0 0 0 0 0.25 0"/>
<feBlend mode="normal" in2="effect1_dropShadow" result="effect2_dropShadow"/>
<feBlend mode="normal" in="SourceGraphic" in2="effect2_dropShadow" result="shape"/>
</filter>
</defs>
</svg>
