<svg width="177" height="221" viewBox="0 0 177 221" fill="none" xmlns="http://www.w3.org/2000/svg">
<path d="M88.5 188.175C137.377 188.175 177 150.998 177 105.139C177 59.2791 137.377 22.1026 88.5 22.1026C39.6228 22.1026 0 59.2791 0 105.139C0 150.998 39.6228 188.175 88.5 188.175Z" fill="#85C5E5"/>
<path d="M117.783 137.25C141.944 137.25 136.95 165.784 137.182 197.516H117.783V137.25Z" fill="#A56941"/>
<path d="M123.837 155.521L117.783 165.045L120.813 197.516H129.267C129.472 152.489 123.837 155.521 123.837 155.521Z" fill="#8D5638"/>
<path d="M17.4881 72.6277C17.4881 35.8307 49.2818 6 88.5001 6C127.718 6 159.512 35.8307 159.512 72.6277C159.522 82.5424 157.169 92.3337 152.625 101.285C148.081 110.236 141.461 118.121 133.25 124.361C131.793 125.474 130.29 126.53 128.741 127.531C112.725 137.07 92.4933 137.07 74.2285 135.544C72.4555 135.294 70.6879 134.979 68.9335 134.617C61.9242 133.168 55.1384 130.933 48.8692 127.673C47.3198 126.777 45.8175 125.81 44.3622 124.771C42.8995 123.726 41.4955 122.61 40.156 121.429C38.8889 120.325 37.6652 119.178 36.485 117.987C24.2544 105.673 17.4644 89.4601 17.4881 72.6277Z" fill="#A56941"/>
<path d="M27.1677 106.218C27.3541 106.517 27.5378 106.817 27.7294 107.112C27.8439 107.292 27.9637 107.466 28.0835 107.646C28.2592 107.914 28.4349 108.181 28.6159 108.443C28.7437 108.633 28.8821 108.818 29.0046 109.003C29.1803 109.252 29.356 109.502 29.537 109.752C29.6728 109.942 29.8032 110.132 29.9523 110.321C30.128 110.571 30.3037 110.801 30.4847 111.041C30.6285 111.233 30.7776 111.423 30.924 111.615C31.0704 111.808 31.2807 112.077 31.4564 112.307C31.6321 112.537 31.7626 112.689 31.917 112.879C32.0714 113.069 32.2817 113.329 32.468 113.553C32.6544 113.778 32.7848 113.931 32.9445 114.118C33.1043 114.305 33.3199 114.558 33.5089 114.775C33.6979 114.992 33.8363 115.147 34.0014 115.332C34.1664 115.517 34.3847 115.762 34.5791 115.974C34.7734 116.186 34.9172 116.341 35.0875 116.523L35.6785 117.148C35.8516 117.33 36.0273 117.507 36.2109 117.687C36.4399 117.922 36.6715 118.154 36.9031 118.384L37.2252 118.704C37.5686 119.039 37.9147 119.373 38.2661 119.703L38.3353 119.77C38.6787 120.09 39.0275 120.407 39.3762 120.722L39.7968 121.097C40.0497 121.319 40.3026 121.541 40.5582 121.761L40.867 122.026C41.1332 122.261 41.4234 122.49 41.7029 122.72C42.5725 123.431 43.4599 124.113 44.365 124.766C45.8185 125.805 47.3209 126.772 48.872 127.668C55.1413 130.915 61.9164 133.163 68.9364 134.612C70.6907 134.974 72.4583 135.286 74.2313 135.539C85.4388 136.475 97.3917 136.833 108.647 134.769C90.7498 129.826 4.80061 100.787 58.8975 12.0521C58.1734 12.3643 57.46 12.6865 56.7518 13.0212L56.5948 13.0936C56.27 13.246 55.9452 13.4033 55.6231 13.5632L55.3569 13.6956C54.3559 14.1951 53.3656 14.7122 52.394 15.2517L52.1544 15.3841C51.8456 15.5564 51.5394 15.7313 51.2333 15.9086L51.0017 16.0435C50.0504 16.6013 49.1142 17.1783 48.1931 17.7744L47.9056 17.9618C47.6155 18.1516 47.3306 18.3414 47.0458 18.5337L46.8701 18.6511C46.2897 19.0491 45.7165 19.4521 45.1503 19.8601L44.9853 19.9799C44.7191 20.1748 44.4529 20.3746 44.1867 20.5769L43.8752 20.8117C43.609 21.014 43.3428 21.2163 43.0765 21.4237C42.5148 21.8608 41.9611 22.3104 41.4154 22.7649L41.1119 23.0147L40.3958 23.6267L40.0497 23.9214C39.2901 24.5875 38.5474 25.2677 37.8215 25.9621L37.4542 26.3143C37.2438 26.5191 37.0335 26.7239 36.8259 26.9312C36.7034 27.0536 36.581 27.181 36.4612 27.3009C36.0956 27.6672 35.7353 28.0385 35.3804 28.4149C35.2606 28.5423 35.1381 28.6647 35.0183 28.7995C34.8293 29.0019 34.643 29.2067 34.4566 29.4115L34.0546 29.8586C33.8736 30.0609 33.6926 30.2632 33.5222 30.468C33.3785 30.6329 33.2347 30.8002 33.0936 30.9676C32.8088 31.2998 32.5292 31.632 32.2524 31.9667C32.1086 32.1415 31.9649 32.3164 31.8238 32.4937C31.6827 32.6711 31.5043 32.8909 31.3473 33.0932C31.1902 33.2955 31.0624 33.4554 30.924 33.6377C30.7856 33.82 30.6232 34.0249 30.4767 34.2197C30.2247 34.5527 29.9763 34.8899 29.7313 35.2313C29.5982 35.4136 29.4651 35.6009 29.3347 35.7858C29.2043 35.9706 29.0419 36.2004 28.8981 36.4102L28.5015 36.9872L28.0542 37.6641C27.9397 37.8364 27.8253 38.0088 27.7135 38.1811C27.4765 38.5458 27.2476 38.913 27.0186 39.2801L26.6939 39.8196C26.5501 40.0569 26.4064 40.2967 26.2653 40.5365C26.1588 40.7188 26.0523 40.9012 25.9485 41.0835C25.7781 41.3807 25.6104 41.6805 25.4427 41.9802L25.1232 42.5647C24.9528 42.8844 24.7825 43.2016 24.6148 43.5238C24.5269 43.6962 24.4364 43.871 24.3485 44.0459C24.2101 44.3181 24.0823 44.5929 23.9412 44.8676C23.8587 45.0325 23.7789 45.1973 23.699 45.3672C23.502 45.7785 23.3094 46.1948 23.1213 46.616C23.0627 46.7459 23.0068 46.8783 22.9483 47.0082C22.8072 47.3254 22.6688 47.6426 22.533 47.9623C22.4611 48.1297 22.3919 48.297 22.3227 48.4619C22.1896 48.7766 22.0565 49.0938 21.9367 49.411C21.8808 49.5484 21.8249 49.6858 21.7716 49.8232C21.6048 50.2611 21.4406 50.6991 21.2791 51.137L21.13 51.5616C21.0129 51.8946 20.8984 52.2277 20.7866 52.5607L20.6269 53.0378C20.5018 53.4224 20.3793 53.8071 20.2622 54.1943C20.2356 54.2767 20.209 54.3591 20.185 54.444C20.0466 54.9036 19.9135 55.3649 19.7857 55.8278C19.7431 55.9752 19.7058 56.125 19.6659 56.2724C19.5727 56.6196 19.4822 56.9668 19.3997 57.3165L19.2879 57.7536C19.1734 58.2281 19.0616 58.7027 18.9578 59.1798L18.9178 59.3721C18.8273 59.7967 18.7386 60.2213 18.6516 60.646C18.6223 60.7983 18.5957 60.9482 18.5664 61.1006C18.4972 61.4727 18.4307 61.8499 18.3694 62.2245C18.3481 62.3519 18.3242 62.4743 18.3055 62.6042C18.2257 63.0913 18.1538 63.5808 18.0846 64.0729L18.0447 64.3976C17.9914 64.7947 17.9435 65.1944 17.8982 65.594C17.8823 65.7439 17.8636 65.8938 17.8477 66.0461C17.8051 66.4657 17.7651 66.8879 17.7279 67.31C17.7279 67.3974 17.7119 67.4823 17.7066 67.5598C17.6675 68.0593 17.6329 68.563 17.6027 69.0709C17.6027 69.2033 17.6027 69.3382 17.5841 69.4705C17.5664 69.8635 17.5504 70.2557 17.5362 70.647C17.5362 70.7944 17.5362 70.9417 17.5362 71.0891C17.5362 71.6011 17.5149 72.1157 17.5149 72.6302C17.5149 72.6302 17.5149 72.6477 17.5149 72.6552C17.5149 73.2097 17.5149 73.7592 17.5362 74.3087C17.5362 74.4985 17.5522 74.6884 17.5575 74.8782C17.5708 75.2454 17.5841 75.6125 17.6027 75.9797C17.6027 76.202 17.632 76.4218 17.6453 76.6441C17.6666 76.9763 17.6853 77.3085 17.7119 77.6432C17.7305 77.893 17.7545 78.1153 17.7758 78.3501C17.8051 78.6648 17.8317 78.9795 17.8663 79.2917C17.8902 79.5415 17.9222 79.7763 17.9488 80.0186C17.9861 80.3208 18.0207 80.6255 18.0606 80.9278C18.0926 81.1775 18.1298 81.4273 18.1644 81.6646C18.207 81.9593 18.2496 82.2566 18.2976 82.5513C18.3375 82.8011 18.3801 83.0509 18.4227 83.3006C18.4706 83.5904 18.5212 83.8826 18.5744 84.1723C18.6223 84.4221 18.6703 84.6719 18.7208 84.9217C18.7767 85.2089 18.8353 85.4962 18.8939 85.7809C18.9524 86.0657 19.003 86.2805 19.0589 86.5302C19.1228 86.815 19.1867 87.0972 19.2559 87.3795C19.3251 87.6617 19.3731 87.879 19.4369 88.1113C19.5062 88.3936 19.5807 88.6733 19.6552 88.9506C19.7298 89.2278 19.7857 89.4376 19.8522 89.6774C19.9321 89.9572 20.012 90.2344 20.0945 90.5117C20.1637 90.7614 20.2356 90.9912 20.3101 91.2285C20.3953 91.5058 20.4832 91.7805 20.5763 92.0553C20.6695 92.33 20.7307 92.5274 20.8106 92.7646C20.8905 93.0019 20.9969 93.3117 21.0928 93.5839C21.1886 93.8562 21.2578 94.051 21.343 94.2833C21.4442 94.5555 21.5453 94.8278 21.6492 95.1C21.737 95.3273 21.8222 95.5572 21.9154 95.7844L22.2455 96.6012C22.3386 96.8235 22.4292 97.0483 22.5117 97.2706C22.6288 97.5429 22.7486 97.8176 22.8684 98.0899C22.9642 98.3047 23.0574 98.522 23.1559 98.7368C23.281 99.0165 23.4221 99.2913 23.5419 99.5685C23.6404 99.7734 23.7363 99.9807 23.8348 100.185C23.9732 100.475 24.1196 100.76 24.2607 101.045L24.5482 101.619C24.7106 101.934 24.8783 102.244 25.046 102.556C25.1312 102.713 25.2111 102.873 25.2989 103.03C25.8101 103.965 26.3425 104.886 26.8962 105.795C26.9734 105.913 27.0719 106.065 27.1677 106.218Z" fill="#8D5638"/>
<path d="M17.4881 72.6277C17.4881 35.8307 49.2818 6 88.5001 6C127.718 6 159.512 35.8307 159.512 72.6277C159.522 82.5424 157.169 92.3337 152.625 101.285C148.081 110.236 141.461 118.121 133.25 124.361C131.793 125.474 130.29 126.53 128.741 127.531C112.725 137.07 92.4933 137.07 74.2285 135.544C72.4555 135.294 70.6879 134.979 68.9335 134.617C61.9242 133.168 55.1384 130.933 48.8692 127.673C47.3198 126.777 45.8175 125.81 44.3622 124.771C42.8995 123.726 41.4955 122.61 40.156 121.429C38.8889 120.325 37.6652 119.178 36.485 117.987C24.2544 105.673 17.4644 89.4601 17.4881 72.6277V72.6277Z" stroke="#592D3D" stroke-width="12" stroke-miterlimit="10"/>
<path d="M58.1839 137.25C34.0198 137.25 39.0166 165.784 38.785 197.516H58.1839V137.25Z" fill="#A56941"/>
<path d="M53.155 155.521L59.2167 165.045L56.1845 197.516H47.7376C47.522 152.489 53.155 155.521 53.155 155.521Z" fill="#8D5638"/>
<path d="M120.304 215H56.6956C55.7584 214.999 54.8599 214.65 54.1975 214.028C53.5351 213.406 53.163 212.562 53.163 211.683V140.567C53.163 139.687 53.5351 138.844 54.1975 138.222C54.8599 137.6 55.7584 137.25 56.6956 137.25H118.784C122.269 137.25 123.842 139.163 123.842 142.215V211.673C123.844 212.11 123.753 212.542 123.576 212.946C123.399 213.35 123.138 213.717 122.81 214.026C122.481 214.335 122.09 214.58 121.66 214.747C121.231 214.914 120.77 215 120.304 215Z" fill="#A56941"/>
<path d="M122.855 139.223C122.589 138.917 122.365 138.581 122.186 138.224C121.547 137.754 120.787 137.451 119.982 137.347C119.586 137.29 119.185 137.261 118.784 137.262H56.6956C55.7607 137.263 54.8642 137.611 54.2022 138.23C53.5401 138.85 53.1665 139.69 53.163 140.567C60.8831 143.169 75.3357 144.623 88.4999 144.623C105.287 144.623 116.287 142.288 122.855 139.223Z" fill="#8D5638"/>
<path d="M117.783 137.25C141.944 137.25 136.95 165.784 137.182 197.516H123.837" stroke="#592D3D" stroke-width="12" stroke-miterlimit="10" stroke-linecap="square"/>
<path d="M58.1839 137.25C34.0198 137.25 39.0166 165.784 38.785 197.516H52.1142" stroke="#592D3D" stroke-width="12" stroke-miterlimit="10" stroke-linecap="square"/>
<path d="M56.6963 137.275L118.785 137.25" stroke="#592D3D" stroke-width="12" stroke-miterlimit="10"/>
<path d="M56.6956 215H87.7412C58.6842 215 60.8778 157.257 53.163 157.257V211.673C53.1616 212.109 53.2519 212.541 53.4288 212.945C53.6056 213.348 53.8656 213.715 54.1937 214.024C54.5219 214.333 54.9118 214.578 55.3411 214.746C55.7704 214.913 56.2307 215 56.6956 215Z" fill="#8D5638"/>
<path d="M51.5661 162.759C51.5155 161.843 51.5368 160.926 51.5794 160.012C51.622 159.098 51.7045 158.176 51.8083 157.264C51.8616 156.805 51.9148 156.348 51.9814 155.888C52.0479 155.428 52.1118 154.971 52.2076 154.512C52.3965 153.561 52.7178 152.637 53.1633 151.764C53.6089 152.637 53.9302 153.561 54.119 154.512C54.2149 154.971 54.2841 155.428 54.3453 155.888C54.4066 156.348 54.4651 156.805 54.5184 157.264C54.6195 158.181 54.6994 159.098 54.7446 160.012C54.7899 160.926 54.8112 161.845 54.7606 162.759H51.5661Z" fill="#592D3D"/>
<path d="M123.837 165.045V167.043C123.906 175.535 123.906 184.278 123.837 192.708C123.837 193.424 123.837 194.136 123.837 194.838V211.675C123.838 212.111 123.747 212.543 123.57 212.947C123.393 213.35 123.133 213.716 122.805 214.025C122.477 214.334 122.087 214.579 121.658 214.746C121.229 214.913 120.769 215 120.304 215H56.6956C55.7584 214.999 54.8599 214.65 54.1975 214.028C53.5351 213.406 53.163 212.562 53.163 211.683V197.146C53.163 196.519 53.163 195.88 53.163 195.235C53.0964 186.526 53.0964 177.783 53.163 168.934V162.759" stroke="#592D3D" stroke-width="12" stroke-miterlimit="10"/>
<path d="M122.24 165.045C122.189 164.003 122.213 162.959 122.256 161.915C122.299 160.871 122.381 159.829 122.482 158.785C122.536 158.263 122.591 157.741 122.655 157.219C122.719 156.697 122.786 156.178 122.882 155.656C123.067 154.581 123.388 153.53 123.837 152.526C124.287 153.53 124.608 154.581 124.793 155.656C124.889 156.178 124.958 156.7 125.019 157.219C125.081 157.739 125.139 158.263 125.192 158.785C125.294 159.829 125.376 160.871 125.419 161.915C125.461 162.959 125.485 164.003 125.435 165.045H122.24Z" fill="#592D3D"/>
<path d="M89.0507 167.258C89.0502 169.875 88.4174 172.458 87.1998 174.812C85.9823 177.166 84.2117 179.231 82.0211 180.851C79.8306 182.471 77.2771 183.604 74.5527 184.165C71.8284 184.725 69.0039 184.699 66.2919 184.088C63.5798 183.477 61.0507 182.297 58.8946 180.637C56.7385 178.977 55.0116 176.88 53.8438 174.503C52.6759 172.127 52.0975 169.533 52.152 166.917C52.2064 164.3 52.8924 161.729 54.1583 159.397" stroke="#592D3D" stroke-width="12" stroke-miterlimit="10"/>
<path d="M54.1589 159.397C55.167 157.549 56.5194 155.885 58.1521 154.484L54.1589 159.397Z" fill="#A56941"/>
<path d="M52.7345 158.716C52.9682 158.196 53.2705 157.706 53.6343 157.257C53.9951 156.807 54.3988 156.389 54.8402 156.008C55.0639 155.818 55.2901 155.633 55.5271 155.461C55.7622 155.282 56.0124 155.122 56.2751 154.981C56.8431 154.674 57.4831 154.502 58.1386 154.482C58.0695 155.067 57.9127 155.639 57.6727 156.183C57.5689 156.433 57.4518 156.652 57.3293 156.875L56.9832 157.542C56.757 157.981 56.5333 158.413 56.3044 158.838C56.0829 159.266 55.8377 159.683 55.5697 160.087L52.7345 158.716Z" fill="#592D3D"/>
<path d="M85.6595 157.257C87.8686 160.176 89.054 163.668 89.0511 167.248L85.6595 157.257Z" fill="#A56941"/>
<path d="M85.6595 157.257C86.5684 157.719 87.3581 158.363 87.9729 159.143C88.2789 159.522 88.5548 159.922 88.7982 160.339C89.0458 160.756 89.2694 161.186 89.477 161.625C89.8856 162.508 90.1943 163.429 90.3981 164.373C90.605 165.32 90.689 166.287 90.6484 167.253H87.4538C87.4032 166.441 87.358 165.634 87.2675 164.823C87.177 164.011 87.0625 163.204 86.8948 162.39L86.7617 161.78L86.6073 161.168C86.4955 160.761 86.3757 160.354 86.2639 159.937C86.0124 159.054 85.8107 158.16 85.6595 157.257Z" fill="#592D3D"/>
<path d="M126.209 167.258C126.212 164.888 125.695 162.543 124.69 160.368C123.685 158.194 122.214 156.237 120.368 154.619" fill="#A56941"/>
<path d="M124.612 167.258C124.569 166.182 124.457 165.109 124.276 164.046C124.09 162.972 123.812 161.914 123.446 160.881C123.355 160.631 123.249 160.364 123.15 160.104C123.052 159.844 122.927 159.592 122.818 159.332C122.708 159.073 122.567 158.833 122.45 158.571L122.062 157.821C121.529 156.797 120.951 155.776 120.368 154.637C121.602 155.13 122.711 155.863 123.622 156.787C123.842 157.022 124.074 157.252 124.279 157.499C124.484 157.746 124.689 157.999 124.878 158.248C125.067 158.498 125.259 158.77 125.429 159.043C125.599 159.315 125.778 159.587 125.93 159.872C126.563 161.002 127.046 162.201 127.367 163.441C127.695 164.689 127.84 165.973 127.798 167.258H124.612Z" fill="#592D3D"/>
<path d="M89.2986 167.258C89.2692 169.549 89.7248 171.822 90.6388 173.946C91.5529 176.071 92.9072 178.004 94.6233 179.633C96.3395 181.263 98.3833 182.557 100.636 183.44C102.889 184.323 105.307 184.778 107.748 184.778C110.19 184.778 112.607 184.323 114.86 183.44C117.113 182.557 119.157 181.263 120.873 179.633C122.59 178.004 123.944 176.071 124.858 173.946C125.772 171.822 126.228 169.549 126.198 167.258" stroke="#592D3D" stroke-width="12" stroke-miterlimit="10"/>
<path d="M92.6981 157.257C90.49 160.176 89.3055 163.668 89.3092 167.248L92.6981 157.257Z" fill="#A56941"/>
<path d="M92.6986 157.257C92.5477 158.161 92.346 159.057 92.0943 159.942C91.9825 160.359 91.8627 160.766 91.7509 161.173L91.5992 161.785L91.4661 162.395C91.2984 163.209 91.1759 164.018 91.0907 164.828C91.0055 165.637 90.9576 166.446 90.907 167.258H87.7018C87.6585 166.292 87.7426 165.325 87.9521 164.378C88.1547 163.434 88.4634 162.513 88.8732 161.63C89.0782 161.191 89.3018 160.761 89.5494 160.344C89.7937 159.927 90.0695 159.527 90.3746 159.148C90.9927 158.366 91.786 157.72 92.6986 157.257Z" fill="#592D3D"/>
<path d="M57.4703 156.94V137.25" stroke="#592D3D" stroke-width="12" stroke-miterlimit="10"/>
<path d="M119.503 156.94V137.25" stroke="#592D3D" stroke-width="12" stroke-miterlimit="10"/>
<path d="M80.6469 171.984H94.9957V176.904C90.2731 175.393 85.4892 175.43 80.6469 176.904V171.984Z" fill="#D67070" stroke="#592D3D" stroke-width="12" stroke-miterlimit="10"/>
<path d="M125.264 167.258C125.271 162.873 123.497 158.65 120.304 155.448C119.181 154.319 108.519 156.995 102.253 162.257C96.1004 167.425 90.7442 175.868 91.5109 176.932C93.7194 180.007 96.922 182.336 100.647 183.575C104.372 184.814 108.423 184.898 112.203 183.815C115.983 182.732 119.292 180.538 121.644 177.557C123.995 174.577 125.264 170.966 125.264 167.258Z" fill="#D67070" stroke="#592D3D" stroke-width="12" stroke-miterlimit="10"/>
<path d="M114.618 159.647C112.989 160.564 111.383 161.441 109.826 162.395C108.289 163.316 106.819 164.333 105.426 165.437C104.055 166.551 102.734 167.765 101.432 168.999C100.131 170.233 98.8529 171.497 97.5059 172.763C98.3226 171.155 99.3204 169.633 100.482 168.224C101.642 166.794 102.954 165.477 104.398 164.295C105.867 163.129 107.49 162.144 109.227 161.366C110.938 160.578 112.75 160.001 114.618 159.647Z" fill="white"/>
<path d="M51.7357 167.258C51.7291 162.873 53.5024 158.65 56.6953 155.448C57.8187 154.319 68.4805 156.995 74.7471 162.257C80.8992 167.425 86.2554 175.868 85.4887 176.932C83.2803 180.007 80.0776 182.336 76.3525 183.575C72.6273 184.814 68.5765 184.898 64.7966 183.815C61.0166 182.732 57.7073 180.538 55.356 177.557C53.0047 174.577 51.7357 170.966 51.7357 167.258Z" fill="#D67070" stroke="#592D3D" stroke-width="12" stroke-miterlimit="10"/>
<path d="M76.7205 182.259C70.6937 182.259 64.9138 180.013 60.6523 176.015C56.3908 172.016 53.9966 166.593 53.9966 160.939C53.9966 160.212 54.0357 159.486 54.1138 158.763C52.1122 162.097 51.3445 165.959 51.9305 169.746C52.5165 173.533 54.4233 177.031 57.3527 179.694C60.2822 182.356 64.0692 184.033 68.1219 184.462C72.1747 184.891 76.2647 184.048 79.7526 182.065C78.7477 182.193 77.7347 182.258 76.7205 182.259Z" fill="#C46565"/>
<path d="M51.7357 167.258C51.7291 162.873 53.5024 158.65 56.6953 155.448C57.8187 154.319 68.4805 156.995 74.7471 162.257C80.8992 167.425 86.2554 175.868 85.4887 176.932C83.2803 180.007 80.0776 182.336 76.3525 183.575C72.6273 184.814 68.5765 184.898 64.7966 183.815C61.0166 182.732 57.7073 180.538 55.356 177.557C53.0047 174.577 51.7357 170.966 51.7357 167.258V167.258Z" stroke="#592D3D" stroke-width="12" stroke-miterlimit="10"/>
<path d="M62.3818 159.647C64.2498 160 66.0616 160.577 67.7726 161.363C69.5096 162.142 71.1326 163.128 72.6017 164.295C74.0399 165.476 75.3466 166.791 76.5017 168.219C77.6634 169.628 78.6612 171.15 79.478 172.758C78.1309 171.509 76.8584 170.228 75.5513 168.994C74.2442 167.76 72.9318 166.546 71.5581 165.432C70.1647 164.328 68.6946 163.311 67.1577 162.39C65.6057 161.441 64.0084 160.564 62.3818 159.647Z" fill="white"/>
<path d="M135.832 174.124C135.888 164.855 135.51 156.622 133.774 150.298C131.094 143.964 126.273 140.187 117.783 140.187L123.85 173.787C123.85 173.787 129.845 176.345 135.832 174.124Z" fill="#8D5638"/>
<path d="M138.125 171.487C137.821 171.722 137.491 171.925 137.14 172.093" stroke="#592D3D" stroke-width="12" stroke-miterlimit="10" stroke-linecap="square"/>
<path d="M42.2086 150.028C40.3904 156.415 40.0789 164.798 40.1481 174.257C45.4457 176.39 53.5705 173.72 53.5705 173.72L58.184 140.689C49.966 140.682 45.0677 144.154 42.2086 150.028Z" fill="#8D5638"/>
<path d="M118.784 137.25H104.353V137.275C104.353 138.399 104.225 139.521 103.97 140.619C103.846 141.154 103.691 141.681 103.506 142.2C102.917 143.75 102.013 145.178 100.844 146.404C100.471 146.797 100.071 147.167 99.6462 147.511C92.9457 152.056 82.2972 152.306 75.8256 147.366C75.1283 146.794 74.4942 146.158 73.9328 145.467C72.7672 144.031 71.9414 142.378 71.5103 140.619C71.3841 140.076 71.289 139.526 71.2254 138.973C71.1589 138.409 71.126 137.842 71.127 137.275V137.25H56.6956C55.7585 137.25 54.8599 137.6 54.1975 138.222C53.5351 138.844 53.163 139.687 53.163 140.567V211.673C53.1616 212.109 53.2519 212.541 53.4288 212.945C53.6056 213.348 53.8656 213.715 54.1937 214.024C54.5219 214.333 54.9118 214.578 55.3411 214.746C55.7704 214.913 56.2307 215 56.6956 215H120.304C121.241 214.999 122.14 214.65 122.802 214.028C123.465 213.406 123.837 212.562 123.837 211.683V142.215C123.837 139.163 122.269 137.25 118.784 137.25Z" fill="#D67070"/>
<path d="M117.783 137.25C134.698 137.25 137.323 151.237 137.456 170.512C132.505 173.415 124.436 170.84 124.436 170.84L117.783 137.25Z" fill="#D67070"/>
<path d="M123.837 155.521L117.783 165.045L120.813 197.516H123.903V171.127L128.503 171.849C126.994 153.822 123.837 155.521 123.837 155.521Z" fill="#C46565"/>
<path d="M58.184 137.25C41.7374 137.25 37.9971 150.688 37.7256 169.136C42.7836 174.097 53.1659 170.28 53.1659 170.28L58.184 137.25Z" fill="#D67070"/>
<path d="M53.1549 155.521V170.29L48.5468 171.367C50.0562 153.852 53.1549 155.521 53.1549 155.521Z" fill="#C46565"/>
<path d="M117.783 137.25C135.728 137.25 138.667 151.31 138.787 170.665C131.812 173.769 124.436 170.84 124.436 170.84" stroke="#592D3D" stroke-width="12" stroke-miterlimit="10" stroke-linecap="square"/>
<path d="M58.1836 137.25C40.4033 137.25 36.8654 150.913 36.6843 169.9C42.1789 173.592 53.1522 170.29 53.1522 170.29" stroke="#592D3D" stroke-width="12" stroke-miterlimit="10" stroke-linecap="square"/>
<path d="M56.6956 215H87.7412C58.6842 215 60.8778 157.257 53.163 157.257V211.673C53.1616 212.109 53.2519 212.541 53.4288 212.945C53.6056 213.348 53.8656 213.715 54.1937 214.024C54.5219 214.333 54.9118 214.578 55.3411 214.746C55.7704 214.913 56.2307 215 56.6956 215Z" fill="#C46565"/>
<path d="M51.5661 162.759C51.5155 161.843 51.5368 160.926 51.5794 160.012C51.622 159.098 51.7045 158.176 51.8083 157.264C51.8616 156.805 51.9148 156.348 51.9814 155.888C52.0479 155.428 52.1118 154.971 52.2076 154.512C52.3965 153.561 52.7178 152.637 53.1633 151.764C53.6093 152.636 53.9297 153.56 54.1164 154.512C54.2149 154.971 54.2841 155.428 54.3453 155.888C54.4066 156.348 54.4651 156.805 54.5184 157.264C54.6195 158.181 54.6994 159.098 54.7446 160.012C54.7899 160.926 54.8112 161.845 54.7606 162.759H51.5661Z" fill="#592D3D"/>
<path d="M123.837 165.045V167.043C123.906 175.535 123.906 184.278 123.837 192.708C123.837 193.424 123.837 194.136 123.837 194.838V211.675C123.838 212.111 123.747 212.543 123.57 212.947C123.393 213.35 123.133 213.716 122.805 214.025C122.477 214.334 122.087 214.579 121.658 214.746C121.229 214.913 120.769 215 120.304 215H56.6956C55.7584 214.999 54.8599 214.65 54.1975 214.028C53.5351 213.406 53.163 212.562 53.163 211.683V197.146C53.163 196.519 53.163 195.88 53.163 195.235C53.0964 186.526 53.0964 177.783 53.163 168.934V162.759" stroke="#592D3D" stroke-width="12" stroke-miterlimit="10"/>
<path d="M122.24 165.045C122.189 164.003 122.213 162.959 122.256 161.915C122.299 160.871 122.381 159.829 122.482 158.785C122.536 158.263 122.591 157.741 122.655 157.219C122.719 156.697 122.786 156.178 122.884 155.656C123.068 154.581 123.387 153.53 123.837 152.526C124.287 153.53 124.608 154.581 124.793 155.656C124.889 156.178 124.958 156.7 125.019 157.219C125.081 157.739 125.139 158.263 125.192 158.785C125.294 159.829 125.376 160.871 125.419 161.915C125.461 162.959 125.485 164.003 125.435 165.045H122.24Z" fill="#592D3D"/>
<path d="M56.6963 137.275L118.785 137.25" stroke="#592D3D" stroke-width="12" stroke-miterlimit="10"/>
<path d="M104.353 137.275C104.353 138.399 104.225 139.521 103.97 140.619C103.846 141.154 103.691 141.681 103.506 142.2C102.917 143.75 102.013 145.178 100.844 146.404C100.471 146.797 100.071 147.167 99.6464 147.511C92.9458 152.056 82.2973 152.306 75.8257 147.366C75.1285 146.794 74.4944 146.158 73.933 145.467C72.7674 144.031 71.9415 142.378 71.5104 140.619C71.3843 140.076 71.2892 139.526 71.2256 138.973C71.1591 138.409 71.1262 137.842 71.1271 137.275" stroke="#592D3D" stroke-width="12" stroke-miterlimit="10"/>
<path d="M89.4051 154.652C87.7947 154.956 86.1471 155.048 84.5095 154.926C82.8571 154.817 81.2276 154.502 79.6644 153.987C78.0919 153.481 76.6108 152.754 75.2719 151.829L74.7768 151.477C74.6144 151.357 74.4573 151.227 74.3003 151.097C73.984 150.845 73.6878 150.571 73.4138 150.278C72.8673 149.702 72.3872 149.073 71.9816 148.402C72.5511 148.938 73.15 149.446 73.7758 149.923C73.9302 150.043 74.0873 150.161 74.2417 150.273C74.3961 150.385 74.5691 150.478 74.7315 150.583C74.8939 150.688 75.0563 150.793 75.224 150.89L75.7325 151.18C77.0906 151.935 78.5266 152.559 80.0185 153.043C81.5134 153.534 83.0495 153.905 84.6107 154.155C86.1985 154.398 87.7988 154.564 89.4051 154.652Z" fill="#592D3D"/>
<path d="M37.3419 170.665C37.6446 170.924 37.9726 171.155 38.3216 171.357" stroke="#592D3D" stroke-width="12" stroke-miterlimit="10" stroke-linecap="square"/>
<path d="M135.007 168.214C134.453 168.525 133.843 168.739 133.208 168.844C132.577 168.96 131.934 169.015 131.291 169.006C130.649 168.994 130.009 168.928 129.38 168.809C129.065 168.756 128.759 168.669 128.45 168.592C128.142 168.514 127.846 168.399 127.553 168.282C127.875 168.282 128.187 168.327 128.501 168.352L129.438 168.424C129.75 168.424 130.058 168.474 130.37 168.477C130.681 168.479 130.987 168.504 131.296 168.507C131.917 168.517 132.539 168.501 133.16 168.459C133.781 168.419 134.398 168.337 135.007 168.214Z" fill="#592D3D"/>
<path fill-rule="evenodd" clip-rule="evenodd" d="M85.9951 162.297C84.7439 162.889 82.1031 164.046 80.6709 164.957C79.2386 165.869 79.4197 166.731 78.7941 167.323C78.1685 167.915 76.2917 169.391 75.0405 170.278C73.7893 171.164 74.1008 173.525 73.7893 174.414C73.4778 175.303 72.8496 177.369 72.5354 178.255C72.2213 179.142 73.161 180.324 73.7893 181.503C74.4175 182.681 75.9776 185.934 76.6031 187.118C77.2287 188.301 79.1082 187.707 80.6709 188.888C82.3692 190.169 84.1471 191.353 85.9951 192.435C87.5578 193.322 88.186 193.322 89.7487 192.435C91.5972 191.354 93.3751 190.169 95.0729 188.888C96.6383 187.707 98.515 188.299 99.1433 187.118C99.7716 185.936 101.332 182.684 101.957 181.503C102.583 180.321 103.522 179.137 103.211 178.255C102.9 177.374 102.271 175.301 101.957 174.414C101.643 173.527 101.957 171.167 100.706 170.278C99.4001 169.355 98.1471 168.369 96.9524 167.323C95.8875 166.381 96.3268 165.844 95.0729 164.957C93.8191 164.071 91.0052 162.889 89.7487 162.297C89.1714 162.007 88.5268 161.855 87.8719 161.855C87.2171 161.855 86.5723 162.007 85.9951 162.297Z" fill="white"/>
<path fill-rule="evenodd" clip-rule="evenodd" d="M81.5785 167.408L87.4352 171.154C87.568 171.237 87.7232 171.282 87.8824 171.284C88.041 171.283 88.1958 171.238 88.327 171.154L94.1836 167.39C94.2959 167.315 94.3856 167.214 94.4438 167.096C94.502 166.979 94.5269 166.85 94.5159 166.721C94.5049 166.591 94.4584 166.467 94.3811 166.36C94.3037 166.253 94.1981 166.166 94.0745 166.109L88.2178 163.386C88.1082 163.337 87.9881 163.311 87.8664 163.311C87.7448 163.311 87.6247 163.337 87.515 163.386L81.6743 166.109C81.5486 166.167 81.4412 166.254 81.3631 166.363C81.2849 166.472 81.2386 166.599 81.2289 166.73C81.2192 166.861 81.2464 166.992 81.3077 167.11C81.3691 167.228 81.4625 167.329 81.5785 167.403V167.408ZM89.8683 172.336C89.8675 172.458 89.8987 172.579 89.959 172.687C90.0193 172.796 90.107 172.888 90.2144 172.958L94.9104 175.97C95.057 176.063 95.2321 176.107 95.4084 176.096C95.5848 176.085 95.7523 176.02 95.8847 175.91L99.822 172.606C99.9094 172.533 99.9788 172.443 100.025 172.342C100.072 172.242 100.094 172.133 100.091 172.023C100.087 171.914 100.059 171.806 100.006 171.708C99.9537 171.61 99.8791 171.524 99.7874 171.457L96.0285 168.637C95.8955 168.537 95.732 168.48 95.5621 168.474C95.3921 168.467 95.2244 168.512 95.0834 168.602L90.2144 171.726C90.1084 171.794 90.0213 171.885 89.9606 171.991C89.8999 172.097 89.8673 172.215 89.8657 172.336H89.8683ZM78.1896 176.432C78.2843 176.511 78.3578 176.609 78.4041 176.719C78.4504 176.83 78.4681 176.949 78.4558 177.067C78.4427 177.185 78.3999 177.298 78.3309 177.397C78.262 177.497 78.1688 177.579 78.0592 177.639L75.256 179.215C75.117 179.292 74.9563 179.328 74.7952 179.317C74.6341 179.307 74.4801 179.251 74.3535 179.157C74.2258 179.063 74.1318 178.934 74.0842 178.788C74.0367 178.642 74.0377 178.486 74.0873 178.34L75.1255 175.281C75.1649 175.161 75.2354 175.053 75.3307 174.966C75.4261 174.879 75.5431 174.815 75.6713 174.781C75.7993 174.747 75.9347 174.744 76.0643 174.773C76.1938 174.802 76.3134 174.861 76.4113 174.946L78.1896 176.432ZM93.3983 176.752L88.327 173.505C88.1955 173.422 88.0407 173.378 87.8824 173.378C87.7241 173.378 87.5693 173.422 87.4378 173.505L82.3798 176.752C82.2795 176.816 82.1963 176.901 82.1363 177C82.0763 177.099 82.0412 177.21 82.0337 177.324C82.0274 177.438 82.0479 177.553 82.0939 177.659C82.1399 177.765 82.2103 177.86 82.2999 177.938L87.358 182.184C87.5041 182.307 87.6941 182.374 87.8904 182.372C88.0863 182.373 88.2758 182.306 88.4228 182.184L93.4808 177.938C93.5725 177.862 93.6442 177.767 93.6903 177.66C93.7365 177.554 93.7559 177.439 93.747 177.324C93.7389 177.21 93.703 177.099 93.6421 177C93.5812 176.9 93.4969 176.816 93.3956 176.752H93.3983ZM79.8747 175.91L75.9401 172.606C75.8528 172.531 75.7837 172.439 75.7378 172.337C75.6918 172.235 75.67 172.124 75.6739 172.014C75.6762 171.904 75.7041 171.796 75.7556 171.698C75.8071 171.599 75.881 171.513 75.9721 171.444L79.731 168.607C79.8648 168.506 80.0293 168.449 80.2005 168.443C80.3716 168.437 80.5402 168.483 80.6814 168.574L85.5451 171.696C85.6561 171.766 85.7472 171.86 85.8103 171.97C85.8735 172.08 85.9067 172.203 85.9071 172.328C85.9075 172.453 85.8745 172.576 85.8113 172.686C85.7481 172.796 85.6565 172.889 85.5451 172.958L80.8544 175.97C80.7073 176.064 80.5311 176.109 80.3536 176.098C80.1761 176.087 80.0076 176.021 79.8747 175.91ZM100.075 180.656L96.0684 178.408C95.923 178.328 95.7543 178.293 95.5865 178.308C95.4186 178.323 95.2602 178.388 95.134 178.493L90.2384 182.592C90.1383 182.676 90.0627 182.784 90.0188 182.903C89.9748 183.023 89.9639 183.151 89.9871 183.276C90.0102 183.401 90.0666 183.518 90.151 183.617C90.2355 183.715 90.3452 183.792 90.47 183.84L97.261 186.423C97.4528 186.495 97.6666 186.494 97.8576 186.421C98.0487 186.348 98.2022 186.208 98.286 186.031L100.389 181.607C100.469 181.441 100.482 181.252 100.424 181.077C100.366 180.902 100.242 180.753 100.075 180.658V180.656ZM100.631 175.286L101.667 178.345C101.706 178.458 101.716 178.578 101.696 178.695C101.677 178.812 101.628 178.923 101.553 179.019C101.479 179.114 101.382 179.192 101.269 179.246C101.156 179.3 101.032 179.327 100.905 179.327C100.763 179.327 100.623 179.29 100.501 179.22L97.6923 177.644C97.5841 177.584 97.4928 177.501 97.4261 177.402C97.3593 177.302 97.3192 177.189 97.309 177.072C97.2967 176.954 97.3144 176.835 97.3607 176.724C97.407 176.614 97.4805 176.516 97.5752 176.437L99.3561 174.938C99.4549 174.856 99.5739 174.797 99.7027 174.769C99.8314 174.74 99.9657 174.742 100.094 174.774C100.222 174.81 100.338 174.876 100.432 174.965C100.526 175.055 100.595 175.165 100.631 175.286ZM85.7767 183.278C85.7989 183.152 85.7862 183.022 85.7396 182.901C85.6929 182.78 85.614 182.673 85.5104 182.589L80.6148 178.49C80.4886 178.385 80.3302 178.321 80.1623 178.305C79.9945 178.29 79.8258 178.325 79.6804 178.405L75.6872 180.653C75.519 180.75 75.3938 180.9 75.3351 181.076C75.2763 181.253 75.2879 181.443 75.3678 181.612L77.4762 186.036C77.5604 186.212 77.7137 186.351 77.9041 186.423C78.0944 186.496 78.3073 186.497 78.4984 186.426L85.2868 183.845C85.4132 183.798 85.5246 183.721 85.6103 183.622C85.696 183.522 85.7533 183.404 85.7767 183.278ZM88.1726 184.527L93.6193 186.598C93.7535 186.649 93.8703 186.734 93.9572 186.843C94.0441 186.951 94.0978 187.08 94.1126 187.216C94.1274 187.351 94.1026 187.487 94.0411 187.61C93.9795 187.734 93.8834 187.839 93.763 187.914L88.311 191.466C88.1809 191.552 88.0258 191.6 87.8664 191.601C87.7072 191.599 87.5524 191.552 87.4218 191.466L81.9751 187.914C81.8551 187.838 81.7596 187.732 81.6988 187.608C81.638 187.485 81.6143 187.348 81.6302 187.213C81.646 187.077 81.7009 186.948 81.7889 186.84C81.8769 186.732 81.9947 186.648 82.1296 186.598L87.5762 184.527C87.7716 184.461 87.9866 184.466 88.1779 184.542L88.1726 184.527Z" fill="#C04927"/>
<path opacity="0.1" d="M69.0344 187.932C72.888 187.931 76.6448 186.799 79.7777 184.694C82.9106 182.588 85.2624 179.615 86.5033 176.192C84.9282 178.72 82.7106 180.843 80.0483 182.371C77.3861 183.899 74.362 184.784 71.2461 184.948C68.1302 185.113 65.0195 184.55 62.1915 183.312C59.3636 182.073 56.9066 180.197 55.0397 177.851L55.0264 181.53C58.4179 185.434 63.2497 187.932 69.0344 187.932Z" fill="black"/>
<path opacity="0.1" d="M107.965 187.932C104.112 187.931 100.355 186.799 97.2221 184.694C94.0892 182.588 91.7374 179.615 90.4966 176.192C92.0716 178.72 94.2892 180.843 96.9515 182.371C99.6138 183.899 102.638 184.784 105.754 184.948C108.87 185.113 111.98 184.55 114.808 183.312C117.636 182.073 120.093 180.197 121.96 177.851V181.528C118.582 185.434 113.75 187.932 107.965 187.932Z" fill="black"/>
<path d="M63.7424 183.481C60.9016 182.486 58.3658 180.85 56.3591 178.717C54.3525 176.584 52.9368 174.02 52.2373 171.252C51.5378 168.484 51.576 165.596 52.3485 162.845C53.121 160.094 54.604 157.564 56.6665 155.478" fill="#D67070"/>
<path d="M63.7426 183.481C60.595 182.999 57.6886 181.601 55.4341 179.484L55.0028 179.085C54.8617 178.95 54.7366 178.802 54.5955 178.663C54.4544 178.523 54.3293 178.375 54.2015 178.23C54.0664 178.088 53.9394 177.939 53.8208 177.783C53.5813 177.476 53.339 177.169 53.1074 176.854L52.4765 175.873C51.6802 174.528 51.0794 173.089 50.6902 171.594C50.3284 170.095 50.1771 168.559 50.2403 167.023C50.3128 165.497 50.6176 163.989 51.1454 162.545C51.2146 162.367 51.2759 162.187 51.3477 162.01L51.582 161.486C51.7284 161.136 51.9174 160.801 52.0905 160.464C52.4604 159.8 52.8822 159.163 53.3523 158.558C53.5786 158.256 53.8368 157.971 54.0844 157.686C54.332 157.402 54.6008 157.129 54.883 156.88C55.4333 156.364 56.0331 155.896 56.6746 155.483C55.1333 157.981 54.0391 160.526 53.5706 163.144C53.327 164.431 53.2217 165.737 53.2565 167.043C53.3078 168.339 53.486 169.627 53.7889 170.892C54.1171 172.15 54.5735 173.375 55.1519 174.551C55.7435 175.739 56.4643 176.867 57.3029 177.916C58.1512 179 59.1155 180 60.1806 180.901C61.2989 181.841 62.4894 182.704 63.7426 183.481Z" fill="#592D3D"/>
<path d="M113.271 183.481C116.111 182.485 118.645 180.847 120.65 178.714C122.655 176.58 124.07 174.016 124.768 171.248C125.466 168.48 125.427 165.593 124.653 162.843C123.88 160.092 122.396 157.563 120.333 155.478" fill="#D67070"/>
<path d="M113.271 183.481C114.521 182.707 115.709 181.848 116.825 180.911C117.89 180.01 118.854 179.01 119.703 177.926C120.541 176.877 121.262 175.749 121.854 174.561C122.432 173.385 122.888 172.16 123.217 170.902C123.519 169.637 123.698 168.349 123.749 167.053C123.787 165.742 123.685 164.431 123.443 163.139C122.974 160.521 121.88 157.984 120.339 155.478C120.98 155.891 121.58 156.359 122.13 156.875C122.418 157.124 122.663 157.409 122.929 157.681C123.195 157.954 123.435 158.251 123.661 158.553C124.131 159.158 124.553 159.795 124.923 160.459C125.096 160.796 125.285 161.131 125.431 161.481L125.666 162.005C125.738 162.182 125.799 162.362 125.868 162.54C126.396 163.984 126.701 165.492 126.773 167.018C126.836 168.554 126.685 170.09 126.323 171.589C125.934 173.084 125.333 174.523 124.537 175.868L123.906 176.849C123.674 177.164 123.432 177.471 123.193 177.778C123.074 177.934 122.947 178.083 122.812 178.226C122.681 178.37 122.546 178.515 122.418 178.658C122.29 178.8 122.152 178.945 122.011 179.08L121.579 179.479C119.326 181.598 116.419 182.997 113.271 183.481Z" fill="#592D3D"/>
<path d="M142.677 74.1538V77.3735C143.092 79.4879 142.914 81.6675 142.16 83.6978C141.912 84.3603 141.599 85 141.226 85.6086C140.334 87.7841 137.938 89.5325 135.542 90.2819C131.815 91.281 127.29 90.7814 124.361 88.0339C120.634 84.2873 121.167 78.7922 121.047 74.1414" stroke="#592D3D" stroke-width="12" stroke-miterlimit="10" stroke-linecap="round"/>
<path d="M55.6731 74.0515C56.2961 80.698 55.2312 89.9397 46.0549 90.8289C45.3358 90.8888 44.6124 90.8888 43.8933 90.8289C41.7279 90.655 39.6581 89.9142 37.9195 88.6908C33.1277 84.9442 34.1925 78.9496 34.2058 74.049" stroke="#592D3D" stroke-width="12" stroke-miterlimit="10" stroke-linecap="round"/>
<path d="M78.8497 95.8993C82.9893 95.8993 85.537 99.0865 88.5638 99.0865C91.5906 99.0865 95.4614 95.8993 99.5504 95.8993C103.639 95.8993 105.865 98.6769 105.865 102.523C105.865 106.682 101.406 114.013 89.2 114.013C76.9942 114.013 71.7898 107.084 71.7898 102.661C71.7898 98.5769 74.7101 95.8993 78.8497 95.8993Z" fill="white" stroke="#592D3D" stroke-width="12" stroke-miterlimit="10"/>
<path d="M82.6031 96.7561V113.116" stroke="#592D3D" stroke-width="12" stroke-miterlimit="10"/>
<path d="M95.6849 96.7561V113.116" stroke="#592D3D" stroke-width="12" stroke-miterlimit="10"/>
<path d="M23.2941 77.5283L26.7548 76.4293L35.0606 73.7967L45.0702 70.6245L53.7194 67.877C55.1224 67.4324 56.528 67.0003 57.9256 66.5432L57.9868 66.5257C58.6516 66.3399 59.2203 65.9309 59.5841 65.3767C59.9405 64.805 60.0404 64.1239 59.8617 63.4831C59.683 62.8423 59.2403 62.2944 58.631 61.9598C58.324 61.7917 57.9842 61.683 57.6317 61.6401C57.2792 61.5972 56.9211 61.621 56.5785 61.71L53.1178 62.8065L44.812 65.4392L34.8024 68.6138L26.1532 71.3614C24.7502 71.806 23.3446 72.2406 21.947 72.6952L21.8858 72.7151C21.221 72.9009 20.6523 73.3099 20.2885 73.8641C19.9321 74.4358 19.8322 75.117 20.0109 75.7577C20.1897 76.3985 20.6323 76.9465 21.2416 77.281C21.5486 77.4491 21.8884 77.5579 22.2409 77.6007C22.5934 77.6436 22.9515 77.6199 23.2941 77.5308V77.5283Z" fill="#592D3D"/>
<path d="M119.796 66.3833L123.185 67.6647L131.315 70.7394L141.114 74.4461L149.582 77.6507C150.953 78.1677 152.314 78.7247 153.701 79.2093L153.759 79.2293C154.358 79.4566 155.279 79.2693 155.812 78.9795C156.114 78.8139 156.378 78.5939 156.589 78.3324C156.801 78.0708 156.955 77.7727 157.044 77.4551C157.132 77.1376 157.153 76.8068 157.105 76.4816C157.057 76.1564 156.942 75.8433 156.765 75.5601L156.349 75.0605C156.024 74.7549 155.619 74.5337 155.175 74.4186L151.787 73.1273L143.656 70.05L133.857 66.3434L125.389 63.1362C124.018 62.6167 122.658 62.0597 121.271 61.5776L121.212 61.5552C120.613 61.3279 119.692 61.5152 119.16 61.8049C118.55 62.1395 118.108 62.6875 117.929 63.3282C117.75 63.969 117.85 64.6502 118.207 65.2219L118.622 65.7214C118.948 66.0274 119.352 66.2493 119.796 66.3658V66.3833Z" fill="#592D3D"/>
<path opacity="0.15" d="M148.398 105.553C151.371 100.893 153.722 95.9075 155.399 90.709C150.81 99.636 142.131 107.059 130.878 107.059C123.353 107.05 116.14 104.241 110.819 99.248C105.499 94.2551 102.506 87.4861 102.497 80.4257C102.487 76.9815 103.195 73.5687 104.582 70.3797H157.183C158.339 73.0373 159.025 75.8545 159.211 78.7198C159.406 76.7215 159.509 74.6759 159.509 72.6202C159.508 70.2004 159.368 67.7824 159.089 65.3767H108.466H68.039H17.9087C17.6296 67.7824 17.4892 70.2004 17.488 72.6202C17.488 73.8017 17.5253 74.9731 17.5892 76.1396C17.9271 74.1642 18.505 72.2317 19.3116 70.3797H71.9151C73.6644 74.4245 74.328 78.8104 73.8477 83.1522C73.3674 87.4939 71.7579 91.6585 69.1605 95.2799C66.5632 98.9013 63.0576 101.869 58.9517 103.921C54.8459 105.974 50.2656 107.049 45.6133 107.052C35.2843 107.052 27.2926 100.6 22.3251 92.8421C24 97.4549 26.2104 101.881 28.9165 106.04C34.0784 109.055 39.0991 112.047 45.6133 112.047C54.5493 112.037 63.1163 108.703 69.4357 102.775C75.7551 96.8473 79.311 88.8099 79.3237 80.4257C79.3237 79.9736 79.3237 79.524 79.2918 79.0769C85.5158 77.0213 91.4097 76.9913 97.2105 78.987C97.1892 79.4641 97.1732 79.9436 97.1732 80.4257C97.1838 88.8112 100.739 96.8505 107.058 102.78C113.378 108.709 121.946 112.045 130.884 112.055C137.749 112.055 143.073 108.87 148.398 105.553ZM97.8867 73.9216C91.6573 72.0357 85.2043 72.0682 78.6316 74.019C78.3615 72.7872 78.0121 71.5719 77.5854 70.3797H98.9089C98.493 71.5401 98.1517 72.7228 97.8867 73.9216Z" fill="black"/>
<path opacity="0.95" d="M17.5781 65.0895C17.5781 65.0895 17.6873 73.1398 17.6873 77.6282C17.6873 93.7163 28.4635 106.76 45.6129 106.76C50.8554 106.757 56.0121 105.51 60.6024 103.134C65.1928 100.758 69.0676 97.3309 71.8658 93.1714C74.664 89.0118 76.2946 84.2554 76.6057 79.3452C76.9168 74.435 75.8983 69.5308 73.645 65.0895H17.5781Z" fill="#592D3D"/>
<path opacity="0.95" d="M102.852 65.0895C100.598 69.5308 99.5797 74.435 99.8908 79.3452C100.202 84.2554 101.833 89.0118 104.631 93.1714C107.429 97.3309 111.304 100.758 115.894 103.134C120.484 105.51 125.641 106.757 130.884 106.76C148.033 106.76 159.512 93.7163 159.512 77.6282C159.512 73.1323 158.918 65.0895 158.918 65.0895H102.852Z" fill="#592D3D"/>
<path opacity="0.25" d="M40.582 104.314L73.3446 73.5719C72.6246 72.0486 71.7321 70.6024 70.6825 69.2583L35.9818 101.822C37.4162 102.804 38.9583 103.64 40.582 104.314Z" fill="white"/>
<path d="M76.7498 74.5085C84.6083 71.5112 92.3311 71.4063 99.9102 74.5085" stroke="#592D3D" stroke-width="20" stroke-miterlimit="10"/>
<path d="M28.4107 73.8142C28.9591 75.4402 26.8294 76.6891 25.2321 76.9389C23.6348 76.9389 22.57 75.9398 22.0375 74.6909C21.7713 73.442 22.0375 72.1931 23.1024 71.4438C24.4335 70.9442 26.2969 70.4447 27.4789 71.7235C27.7747 71.9963 28.0096 72.3217 28.1695 72.6807C28.3295 73.0397 28.4115 73.425 28.4107 73.8142Z" fill="white"/>
<path d="M31.2646 72.86C31.1022 73.9415 29.505 73.9416 29.2388 72.9424C29.2388 72.1931 29.505 71.9433 30.261 71.9184C30.5272 71.9184 30.7825 72.0176 30.9707 72.1942C31.1589 72.3708 31.2646 72.6103 31.2646 72.86Z" fill="white"/>
<path opacity="0.25" d="M127.151 102.331L155.444 75.7849C155.291 74.8393 155.077 73.9034 154.802 72.9824L124.172 101.729C125.151 101.986 126.146 102.187 127.151 102.331Z" fill="white"/>
<path d="M112.64 74.0589C113.189 75.685 111.059 76.9339 109.462 77.1836C107.864 77.1836 106.799 76.1845 106.267 74.9357C106.001 73.6868 106.267 72.4379 107.332 71.6886C108.663 71.189 110.526 70.6895 111.711 71.9683C112.007 72.2412 112.241 72.5666 112.4 72.9257C112.56 73.2847 112.642 73.67 112.64 74.0589Z" fill="white"/>
<path d="M115.481 73.1048C115.318 74.1863 113.721 74.1863 113.455 73.1872C113.455 72.4379 113.721 72.1881 114.48 72.1631C114.611 72.1631 114.742 72.1875 114.863 72.2349C114.985 72.2822 115.095 72.3516 115.188 72.4391C115.281 72.5266 115.355 72.6304 115.405 72.7446C115.455 72.8589 115.481 72.9813 115.481 73.1048Z" fill="white"/>
<path d="M17.5783 65.0895C17.5783 65.0895 17.4878 73.0049 17.6875 77.6282C18.3796 93.7038 28.4637 106.76 45.6131 106.76C50.8556 106.757 56.0123 105.51 60.6026 103.134C65.193 100.758 69.0678 97.3309 71.866 93.1714C74.6642 89.0118 76.2948 84.2554 76.6059 79.3452C76.917 74.435 75.8985 69.5308 73.6452 65.0895H17.5783Z" stroke="#592D3D" stroke-width="20" stroke-miterlimit="10"/>
<path d="M102.852 65.0895C100.598 69.5308 99.5797 74.435 99.8908 79.3452C100.202 84.2554 101.833 89.0118 104.631 93.1714C107.429 97.3309 111.304 100.758 115.894 103.134C120.484 105.51 125.641 106.757 130.884 106.76C148.033 106.76 159.512 93.8887 159.512 77.8006C159.512 73.3046 158.918 65.0895 158.918 65.0895H102.852Z" stroke="#592D3D" stroke-width="20" stroke-miterlimit="10"/>
<path d="M68.0393 65.087H108.458" stroke="#592D3D" stroke-width="20" stroke-miterlimit="10"/>
</svg>
