<svg width="59" height="47" viewBox="0 0 59 47" fill="none" xmlns="http://www.w3.org/2000/svg">
<path d="M52.5979 9.8018L46.2588 9.89453C46.5676 9.13699 46.7589 8.3083 46.7464 7.4583C46.7263 5.89139 46.1012 4.37436 44.964 3.13286C43.8268 1.89136 42.2383 0.991726 40.4347 0.567779C38.6311 0.143832 36.7088 0.218224 34.9538 0.779887C33.1988 1.34155 31.7048 2.36048 30.6941 3.6851L29.2643 5.33352L27.7859 3.70335C26.187 1.78346 23.5215 0.510739 20.4683 0.555404C15.6413 0.626017 11.7929 3.93731 11.8525 7.96875C11.8651 8.81876 12.0808 9.6415 12.4118 10.3897L6.07275 10.4824C2.84507 10.5296 0.318123 12.7285 0.357957 15.4242L0.723626 42.139C0.76346 44.8347 3.38336 46.9583 6.61104 46.9111L53.1362 46.2305C56.3639 46.1833 58.9199 43.984 58.88 41.2882L58.4853 14.5739C58.4455 11.8782 55.8256 9.75458 52.5979 9.8018ZM37.987 5.15733C39.5863 5.13394 40.911 6.20765 40.9307 7.54337C40.9504 8.87909 39.6581 9.99109 38.0588 10.0145C36.4595 10.0379 35.1348 8.96417 35.1151 7.62845C35.0953 6.29273 36.3877 5.18073 37.987 5.15733ZM20.5401 5.41256C22.1394 5.38916 23.4641 6.46288 23.4838 7.7986C23.5035 9.13432 22.2112 10.2463 20.6119 10.2697C19.0126 10.2931 17.6879 9.2194 17.6681 7.88368C17.6484 6.54796 18.9408 5.43596 20.5401 5.41256ZM53.0644 41.3733L6.53927 42.0539L6.4675 37.1968L52.9926 36.5162L53.0644 41.3733ZM52.885 29.2304L6.35984 29.911L6.14452 15.3396L20.9163 15.1235L14.9695 22.0848L19.7222 24.8574L29.3856 13.5421L39.3791 24.5698L44.0478 21.6594L37.8979 14.875L52.6697 14.659L52.885 29.2304Z" fill="white"/>
</svg>
