<svg width="93" height="81" viewBox="0 0 93 81" fill="none" xmlns="http://www.w3.org/2000/svg">
<path d="M16.1947 61.5V62.5H15.1969V73.5C15.1969 75.1592 15.7193 76.7842 16.6957 78.0116C17.6767 79.2449 19.0629 80 20.5719 80H86.1969C87.7059 80 89.092 79.2449 90.0731 78.0116C91.0495 76.7842 91.5719 75.1592 91.5719 73.5V29.5C91.5719 27.8408 91.0495 26.2159 90.0731 24.9884C89.0921 23.7551 87.7059 23 86.1969 23H80.75H79.75V24V34.0898V34.3397L79.8676 34.5602C80.5354 35.8127 81.4518 36.8643 82.5535 37.6024L83.1101 36.7716L82.5535 37.6024C83.3689 38.1487 84.2652 38.5088 85.1969 38.6592V64.3365C83.5006 64.6216 81.9553 65.5971 80.7962 67.0625C79.6128 68.5586 78.8945 70.4793 78.7157 72.5H28.0697C27.8722 70.4917 27.1416 68.5895 25.9532 67.1124C24.7922 65.6694 23.254 64.7131 21.5697 64.437V62.5V61.5H20.5697H17.1969H16.1969H16.1947Z" fill="white" stroke="white" stroke-width="2"/>
<path d="M41.4985 32.7666C40.8386 33.5962 39.9991 34 39.1875 34C38.3759 34 37.5364 33.5962 36.8765 32.7666C36.212 31.9311 35.8125 30.7582 35.8125 29.5C35.8125 28.2418 36.212 27.0689 36.8765 26.2334C37.5364 25.4038 38.3759 25 39.1875 25C39.9991 25 40.8386 25.4038 41.4985 26.2334C42.163 27.0689 42.5625 28.2418 42.5625 29.5C42.5625 30.7582 42.163 31.9311 41.4985 32.7666ZM39.1875 41.5C41.8569 41.5 44.3558 40.1654 46.1573 37.9007C47.9542 35.6418 48.9375 32.6179 48.9375 29.5C48.9375 26.3821 47.9542 23.3582 46.1573 21.0993C44.3558 18.8346 41.8569 17.5 39.1875 17.5C36.5181 17.5 34.0192 18.8346 32.2177 21.0993C30.4208 23.3582 29.4375 26.3821 29.4375 29.5C29.4375 32.6179 30.4208 35.6418 32.2177 37.9007C34.0192 40.1654 36.5181 41.5 39.1875 41.5Z" fill="white" stroke="white" stroke-width="2"/>
<path d="M6.375 1C4.86596 1 3.47984 1.7551 2.49881 2.98839C1.52241 4.21586 1 5.84081 1 7.5V51.5C1 53.1592 1.52241 54.7841 2.49881 56.0116C3.47984 57.2449 4.86596 58 6.375 58H72C73.509 58 74.8952 57.2449 75.8762 56.0116C76.8526 54.7841 77.375 53.1592 77.375 51.5V7.5C77.375 5.84082 76.8526 4.21587 75.8762 2.98839C74.8952 1.7551 73.509 1 72 1H6.375ZM13.3851 10.9693C13.646 10.1761 13.8151 9.34488 13.8895 8.5H64.4846C64.6655 10.5271 65.3896 12.4528 66.5812 13.9493C67.7469 15.4132 69.2991 16.383 71 16.6585V42.3358C69.3032 42.62 67.7573 43.5952 66.598 45.0609C65.4144 46.5574 64.6963 48.4788 64.5183 50.5H13.8754C13.6788 48.4911 12.9484 46.5882 11.7597 45.1108C10.5985 43.6676 9.05974 42.7114 7.375 42.4363V16.6692C8.05592 16.5587 8.71964 16.336 9.34773 16.0088C10.2788 15.5237 11.1084 14.8214 11.7966 13.9556C12.4847 13.09 13.0216 12.0738 13.3851 10.9693Z" fill="white" stroke="white" stroke-width="2"/>
</svg>
