<svg width="67" height="59" viewBox="0 0 67 59" fill="none" xmlns="http://www.w3.org/2000/svg">
<path d="M64.6193 8.38269C63.8991 6.70431 62.7706 5.18702 61.3133 3.93758C59.856 2.68814 58.1053 1.73692 56.1844 1.15086C52.5932 0.190538 49.3446 0.238062 42.7382 0.334705L22.919 0.624636C16.3672 0.720481 13.064 0.768803 9.55668 1.78473C7.65114 2.42933 5.92759 3.43507 4.50772 4.73093C3.08786 6.02678 2.00632 7.58116 1.33946 9.28429C0.266508 12.435 0.30926 15.3282 0.394765 21.1147L0.653773 38.6429C0.739634 44.4535 0.78203 47.3226 1.92031 50.441C2.64051 52.1194 3.76896 53.6367 5.22625 54.8861C6.68354 56.1355 8.43426 57.0867 10.3552 57.6728C13.9187 58.6094 17.1946 58.5615 23.7464 58.4657L43.6202 58.1749C50.1993 58.0787 53.4752 58.0308 56.9825 57.0148C58.8932 56.3731 60.6221 55.3687 62.0469 54.0726C63.4717 52.7765 64.5574 51.2205 65.2271 49.5149C66.3 46.3642 66.2573 43.4709 66.1718 37.6845L65.9135 20.2045C65.8276 14.3939 65.7849 11.5007 64.6193 8.38269ZM47.9406 19.7922L45.435 22.0716C45.1905 22.2784 44.8683 22.3982 44.5305 22.4076C44.1926 22.417 43.8633 22.3154 43.6063 22.1224C41.1204 20.3245 37.9922 19.3624 34.7739 19.406C32.1259 19.4447 29.4893 20.255 29.521 22.4008C29.553 24.5708 32.4028 25.2525 35.6948 26.2896C41.4525 27.8934 46.2339 29.9457 46.3073 34.9124C46.3871 40.3131 41.6919 44.0956 33.945 44.6189L33.278 47.5225C33.2192 47.7893 33.0581 48.0303 32.822 48.2051C32.5859 48.3798 32.2891 48.4776 31.9815 48.4819L27.095 48.5534L26.8489 48.5329C26.4982 48.4687 26.1905 48.2851 25.9925 48.0218C25.7944 47.7585 25.7219 47.4366 25.7906 47.1256L26.5097 44.0524C23.5578 43.444 20.8327 42.1808 18.5916 40.3821L18.5912 40.358C18.4675 40.2522 18.3687 40.1259 18.3005 39.9862C18.2322 39.8465 18.196 39.6962 18.1937 39.5439C18.1915 39.3915 18.2233 39.2402 18.2873 39.0986C18.3514 38.9569 18.4464 38.8278 18.567 38.7185L21.2624 36.3398C21.5072 36.1311 21.8325 36.0122 22.1722 36.0072C22.5119 36.0023 22.8405 36.1116 23.0914 36.3131C25.6063 38.3502 28.9539 39.4588 32.3929 39.3603C35.9417 39.3083 38.2972 37.9475 38.2662 35.8499C38.2352 33.7523 35.8247 33.2329 31.2709 31.8044C26.4438 30.3557 21.8532 28.2766 21.779 23.2617C21.6928 17.427 27.1379 14.5017 33.6312 14.1414L34.2699 11.1659C34.3295 10.9014 34.4916 10.6632 34.7283 10.4925C34.9651 10.3217 35.2616 10.2291 35.5667 10.2305L40.4259 10.1594L40.6993 10.1795C41.4112 10.3138 41.8842 10.9098 41.7297 11.5391L41.0414 14.853C43.509 15.5403 45.8462 16.6396 47.8611 18.1052L47.9164 18.1527C48.4422 18.6273 48.4529 19.3506 47.9406 19.7922Z" fill="white"/>
</svg>
