<svg width="1440" height="973" viewBox="0 0 1440 973" fill="none" xmlns="http://www.w3.org/2000/svg">
<rect width="1440" height="900" fill="#5A12A3"/>
<path d="M199.5 261C199.5 315.952 154.952 360.5 100 360.5C45.0477 360.5 0.5 315.952 0.5 261C0.5 206.048 45.0477 161.5 100 161.5C154.952 161.5 199.5 206.048 199.5 261Z" stroke="#9191E4" stroke-opacity="0.2"/>
<path d="M271.5 185C271.5 239.952 226.952 284.5 172 284.5C117.048 284.5 72.5 239.952 72.5 185C72.5 130.048 117.048 85.5 172 85.5C226.952 85.5 271.5 130.048 271.5 185Z" stroke="#9191E4" stroke-opacity="0.2"/>
<path d="M203.5 452C203.5 506.952 158.952 551.5 104 551.5C49.0477 551.5 4.5 506.952 4.5 452C4.5 397.048 49.0477 352.5 104 352.5C158.952 352.5 203.5 397.048 203.5 452Z" stroke="#9191E4" stroke-opacity="0.2"/>
<path d="M275.5 376C275.5 430.952 230.952 475.5 176 475.5C121.048 475.5 76.5 430.952 76.5 376C76.5 321.048 121.048 276.5 176 276.5C230.952 276.5 275.5 321.048 275.5 376Z" stroke="#9191E4" stroke-opacity="0.2"/>
<path d="M199.5 624C199.5 678.952 154.952 723.5 100 723.5C45.0477 723.5 0.5 678.952 0.5 624C0.5 569.048 45.0477 524.5 100 524.5C154.952 524.5 199.5 569.048 199.5 624Z" stroke="#9191E4" stroke-opacity="0.2"/>
<path d="M271.5 548C271.5 602.952 226.952 647.5 172 647.5C117.048 647.5 72.5 602.952 72.5 548C72.5 493.048 117.048 448.5 172 448.5C226.952 448.5 271.5 493.048 271.5 548Z" stroke="#9191E4" stroke-opacity="0.2"/>
<path d="M199.5 789C199.5 843.952 154.952 888.5 100 888.5C45.0477 888.5 0.5 843.952 0.5 789C0.5 734.048 45.0477 689.5 100 689.5C154.952 689.5 199.5 734.048 199.5 789Z" stroke="#9191E4" stroke-opacity="0.2"/>
<path d="M271.5 713C271.5 767.952 226.952 812.5 172 812.5C117.048 812.5 72.5 767.952 72.5 713C72.5 658.048 117.048 613.5 172 613.5C226.952 613.5 271.5 658.048 271.5 713Z" stroke="#9191E4" stroke-opacity="0.2"/>
<path d="M371.5 789C371.5 843.952 326.952 888.5 272 888.5C217.048 888.5 172.5 843.952 172.5 789C172.5 734.048 217.048 689.5 272 689.5C326.952 689.5 371.5 734.048 371.5 789Z" stroke="#9191E4" stroke-opacity="0.2"/>
<path d="M443.5 713C443.5 767.952 398.952 812.5 344 812.5C289.048 812.5 244.5 767.952 244.5 713C244.5 658.048 289.048 613.5 344 613.5C398.952 613.5 443.5 658.048 443.5 713Z" stroke="#9191E4" stroke-opacity="0.2"/>
<path d="M539.5 789C539.5 843.952 494.952 888.5 440 888.5C385.048 888.5 340.5 843.952 340.5 789C340.5 734.048 385.048 689.5 440 689.5C494.952 689.5 539.5 734.048 539.5 789Z" stroke="#9191E4" stroke-opacity="0.2"/>
<path d="M611.5 713C611.5 767.952 566.952 812.5 512 812.5C457.048 812.5 412.5 767.952 412.5 713C412.5 658.048 457.048 613.5 512 613.5C566.952 613.5 611.5 658.048 611.5 713Z" stroke="#9191E4" stroke-opacity="0.2"/>
<path d="M679.5 789C679.5 843.952 634.952 888.5 580 888.5C525.048 888.5 480.5 843.952 480.5 789C480.5 734.048 525.048 689.5 580 689.5C634.952 689.5 679.5 734.048 679.5 789Z" stroke="#9191E4" stroke-opacity="0.2"/>
<path d="M751.5 713C751.5 767.952 706.952 812.5 652 812.5C597.048 812.5 552.5 767.952 552.5 713C552.5 658.048 597.048 613.5 652 613.5C706.952 613.5 751.5 658.048 751.5 713Z" stroke="#9191E4" stroke-opacity="0.2"/>
<path d="M879.5 789C879.5 843.952 834.952 888.5 780 888.5C725.048 888.5 680.5 843.952 680.5 789C680.5 734.048 725.048 689.5 780 689.5C834.952 689.5 879.5 734.048 879.5 789Z" stroke="#9191E4" stroke-opacity="0.2"/>
<path d="M951.5 713C951.5 767.952 906.952 812.5 852 812.5C797.048 812.5 752.5 767.952 752.5 713C752.5 658.048 797.048 613.5 852 613.5C906.952 613.5 951.5 658.048 951.5 713Z" stroke="#9191E4" stroke-opacity="0.2"/>
<path d="M1039.5 789C1039.5 843.952 994.952 888.5 940 888.5C885.048 888.5 840.5 843.952 840.5 789C840.5 734.048 885.048 689.5 940 689.5C994.952 689.5 1039.5 734.048 1039.5 789Z" stroke="#9191E4" stroke-opacity="0.2"/>
<path d="M1111.5 713C1111.5 767.952 1066.95 812.5 1012 812.5C957.048 812.5 912.5 767.952 912.5 713C912.5 658.048 957.048 613.5 1012 613.5C1066.95 613.5 1111.5 658.048 1111.5 713Z" stroke="#9191E4" stroke-opacity="0.2"/>
<path d="M1215.5 789C1215.5 843.952 1170.95 888.5 1116 888.5C1061.05 888.5 1016.5 843.952 1016.5 789C1016.5 734.048 1061.05 689.5 1116 689.5C1170.95 689.5 1215.5 734.048 1215.5 789Z" stroke="#9191E4" stroke-opacity="0.2"/>
<path d="M1287.5 713C1287.5 767.952 1242.95 812.5 1188 812.5C1133.05 812.5 1088.5 767.952 1088.5 713C1088.5 658.048 1133.05 613.5 1188 613.5C1242.95 613.5 1287.5 658.048 1287.5 713Z" stroke="#9191E4" stroke-opacity="0.2"/>
<path d="M1367.5 789C1367.5 843.952 1322.95 888.5 1268 888.5C1213.05 888.5 1168.5 843.952 1168.5 789C1168.5 734.048 1213.05 689.5 1268 689.5C1322.95 689.5 1367.5 734.048 1367.5 789Z" stroke="#9191E4" stroke-opacity="0.2"/>
<path d="M1439.5 713C1439.5 767.952 1394.95 812.5 1340 812.5C1285.05 812.5 1240.5 767.952 1240.5 713C1240.5 658.048 1285.05 613.5 1340 613.5C1394.95 613.5 1439.5 658.048 1439.5 713Z" stroke="#9191E4" stroke-opacity="0.2"/>
<path d="M371.5 626C371.5 680.952 326.952 725.5 272 725.5C217.048 725.5 172.5 680.952 172.5 626C172.5 571.048 217.048 526.5 272 526.5C326.952 526.5 371.5 571.048 371.5 626Z" stroke="#9191E4" stroke-opacity="0.2"/>
<path d="M443.5 550C443.5 604.952 398.952 649.5 344 649.5C289.048 649.5 244.5 604.952 244.5 550C244.5 495.048 289.048 450.5 344 450.5C398.952 450.5 443.5 495.048 443.5 550Z" stroke="#9191E4" stroke-opacity="0.2"/>
<path d="M543.5 624C543.5 678.952 498.952 723.5 444 723.5C389.048 723.5 344.5 678.952 344.5 624C344.5 569.048 389.048 524.5 444 524.5C498.952 524.5 543.5 569.048 543.5 624Z" stroke="#9191E4" stroke-opacity="0.2"/>
<path d="M615.5 548C615.5 602.952 570.952 647.5 516 647.5C461.048 647.5 416.5 602.952 416.5 548C416.5 493.048 461.048 448.5 516 448.5C570.952 448.5 615.5 493.048 615.5 548Z" stroke="#9191E4" stroke-opacity="0.2"/>
<path d="M687.5 613C687.5 667.952 642.952 712.5 588 712.5C533.048 712.5 488.5 667.952 488.5 613C488.5 558.048 533.048 513.5 588 513.5C642.952 513.5 687.5 558.048 687.5 613Z" stroke="#9191E4" stroke-opacity="0.2"/>
<path d="M759.5 537C759.5 591.952 714.952 636.5 660 636.5C605.048 636.5 560.5 591.952 560.5 537C560.5 482.048 605.048 437.5 660 437.5C714.952 437.5 759.5 482.048 759.5 537Z" stroke="#9191E4" stroke-opacity="0.2"/>
<path d="M879.5 605C879.5 659.952 834.952 704.5 780 704.5C725.048 704.5 680.5 659.952 680.5 605C680.5 550.048 725.048 505.5 780 505.5C834.952 505.5 879.5 550.048 879.5 605Z" stroke="#9191E4" stroke-opacity="0.2"/>
<path d="M951.5 529C951.5 583.952 906.952 628.5 852 628.5C797.048 628.5 752.5 583.952 752.5 529C752.5 474.048 797.048 429.5 852 429.5C906.952 429.5 951.5 474.048 951.5 529Z" stroke="#9191E4" stroke-opacity="0.2"/>
<path d="M1039.5 605C1039.5 659.952 994.952 704.5 940 704.5C885.048 704.5 840.5 659.952 840.5 605C840.5 550.048 885.048 505.5 940 505.5C994.952 505.5 1039.5 550.048 1039.5 605Z" stroke="#9191E4" stroke-opacity="0.2"/>
<path d="M1111.5 529C1111.5 583.952 1066.95 628.5 1012 628.5C957.048 628.5 912.5 583.952 912.5 529C912.5 474.048 957.048 429.5 1012 429.5C1066.95 429.5 1111.5 474.048 1111.5 529Z" stroke="#9191E4" stroke-opacity="0.2"/>
<path d="M371.5 452C371.5 506.952 326.952 551.5 272 551.5C217.048 551.5 172.5 506.952 172.5 452C172.5 397.048 217.048 352.5 272 352.5C326.952 352.5 371.5 397.048 371.5 452Z" stroke="#9191E4" stroke-opacity="0.2"/>
<path d="M443.5 376C443.5 430.952 398.952 475.5 344 475.5C289.048 475.5 244.5 430.952 244.5 376C244.5 321.048 289.048 276.5 344 276.5C398.952 276.5 443.5 321.048 443.5 376Z" stroke="#9191E4" stroke-opacity="0.2"/>
<path d="M1215.5 624C1215.5 678.952 1170.95 723.5 1116 723.5C1061.05 723.5 1016.5 678.952 1016.5 624C1016.5 569.048 1061.05 524.5 1116 524.5C1170.95 524.5 1215.5 569.048 1215.5 624Z" stroke="#9191E4" stroke-opacity="0.2"/>
<path d="M1287.5 548C1287.5 602.952 1242.95 647.5 1188 647.5C1133.05 647.5 1088.5 602.952 1088.5 548C1088.5 493.048 1133.05 448.5 1188 448.5C1242.95 448.5 1287.5 493.048 1287.5 548Z" stroke="#9191E4" stroke-opacity="0.2"/>
<path d="M1367.5 624C1367.5 678.952 1322.95 723.5 1268 723.5C1213.05 723.5 1168.5 678.952 1168.5 624C1168.5 569.048 1213.05 524.5 1268 524.5C1322.95 524.5 1367.5 569.048 1367.5 624Z" stroke="#9191E4" stroke-opacity="0.2"/>
<path d="M1439.5 548C1439.5 602.952 1394.95 647.5 1340 647.5C1285.05 647.5 1240.5 602.952 1240.5 548C1240.5 493.048 1285.05 448.5 1340 448.5C1394.95 448.5 1439.5 493.048 1439.5 548Z" stroke="#9191E4" stroke-opacity="0.2"/>
<path d="M543.5 452C543.5 506.952 498.952 551.5 444 551.5C389.048 551.5 344.5 506.952 344.5 452C344.5 397.048 389.048 352.5 444 352.5C498.952 352.5 543.5 397.048 543.5 452Z" stroke="#9191E4" stroke-opacity="0.2"/>
<path d="M615.5 376C615.5 430.952 570.952 475.5 516 475.5C461.048 475.5 416.5 430.952 416.5 376C416.5 321.048 461.048 276.5 516 276.5C570.952 276.5 615.5 321.048 615.5 376Z" stroke="#9191E4" stroke-opacity="0.2"/>
<path d="M679.5 452C679.5 506.952 634.952 551.5 580 551.5C525.048 551.5 480.5 506.952 480.5 452C480.5 397.048 525.048 352.5 580 352.5C634.952 352.5 679.5 397.048 679.5 452Z" stroke="#9191E4" stroke-opacity="0.2"/>
<path d="M751.5 376C751.5 430.952 706.952 475.5 652 475.5C597.048 475.5 552.5 430.952 552.5 376C552.5 321.048 597.048 276.5 652 276.5C706.952 276.5 751.5 321.048 751.5 376Z" stroke="#9191E4" stroke-opacity="0.2"/>
<path d="M879.5 452C879.5 506.952 834.952 551.5 780 551.5C725.048 551.5 680.5 506.952 680.5 452C680.5 397.048 725.048 352.5 780 352.5C834.952 352.5 879.5 397.048 879.5 452Z" stroke="#9191E4" stroke-opacity="0.2"/>
<path d="M951.5 376C951.5 430.952 906.952 475.5 852 475.5C797.048 475.5 752.5 430.952 752.5 376C752.5 321.048 797.048 276.5 852 276.5C906.952 276.5 951.5 321.048 951.5 376Z" stroke="#9191E4" stroke-opacity="0.2"/>
<path d="M1043.5 450C1043.5 504.952 998.952 549.5 944 549.5C889.048 549.5 844.5 504.952 844.5 450C844.5 395.048 889.048 350.5 944 350.5C998.952 350.5 1043.5 395.048 1043.5 450Z" stroke="#9191E4" stroke-opacity="0.2"/>
<path d="M1115.5 374C1115.5 428.952 1070.95 473.5 1016 473.5C961.048 473.5 916.5 428.952 916.5 374C916.5 319.048 961.048 274.5 1016 274.5C1070.95 274.5 1115.5 319.048 1115.5 374Z" stroke="#9191E4" stroke-opacity="0.2"/>
<path d="M1215.5 448C1215.5 502.952 1170.95 547.5 1116 547.5C1061.05 547.5 1016.5 502.952 1016.5 448C1016.5 393.048 1061.05 348.5 1116 348.5C1170.95 348.5 1215.5 393.048 1215.5 448Z" stroke="#9191E4" stroke-opacity="0.2"/>
<path d="M1287.5 372C1287.5 426.952 1242.95 471.5 1188 471.5C1133.05 471.5 1088.5 426.952 1088.5 372C1088.5 317.048 1133.05 272.5 1188 272.5C1242.95 272.5 1287.5 317.048 1287.5 372Z" stroke="#9191E4" stroke-opacity="0.2"/>
<path d="M1367.5 448C1367.5 502.952 1322.95 547.5 1268 547.5C1213.05 547.5 1168.5 502.952 1168.5 448C1168.5 393.048 1213.05 348.5 1268 348.5C1322.95 348.5 1367.5 393.048 1367.5 448Z" stroke="#9191E4" stroke-opacity="0.2"/>
<path d="M1439.5 372C1439.5 426.952 1394.95 471.5 1340 471.5C1285.05 471.5 1240.5 426.952 1240.5 372C1240.5 317.048 1285.05 272.5 1340 272.5C1394.95 272.5 1439.5 317.048 1439.5 372Z" stroke="#9191E4" stroke-opacity="0.2"/>
<path d="M371.5 261C371.5 315.952 326.952 360.5 272 360.5C217.048 360.5 172.5 315.952 172.5 261C172.5 206.048 217.048 161.5 272 161.5C326.952 161.5 371.5 206.048 371.5 261Z" stroke="#9191E4" stroke-opacity="0.2"/>
<path d="M443.5 185C443.5 239.952 398.952 284.5 344 284.5C289.048 284.5 244.5 239.952 244.5 185C244.5 130.048 289.048 85.5 344 85.5C398.952 85.5 443.5 130.048 443.5 185Z" stroke="#9191E4" stroke-opacity="0.2"/>
<path d="M507.5 261C507.5 315.952 462.952 360.5 408 360.5C353.048 360.5 308.5 315.952 308.5 261C308.5 206.048 353.048 161.5 408 161.5C462.952 161.5 507.5 206.048 507.5 261Z" stroke="#9191E4" stroke-opacity="0.2"/>
<path d="M579.5 185C579.5 239.952 534.952 284.5 480 284.5C425.048 284.5 380.5 239.952 380.5 185C380.5 130.048 425.048 85.5 480 85.5C534.952 85.5 579.5 130.048 579.5 185Z" stroke="#9191E4" stroke-opacity="0.2"/>
<path d="M689.5 261C689.5 315.952 644.952 360.5 590 360.5C535.048 360.5 490.5 315.952 490.5 261C490.5 206.048 535.048 161.5 590 161.5C644.952 161.5 689.5 206.048 689.5 261Z" stroke="#9191E4" stroke-opacity="0.2"/>
<path d="M761.5 185C761.5 239.952 716.952 284.5 662 284.5C607.048 284.5 562.5 239.952 562.5 185C562.5 130.048 607.048 85.5 662 85.5C716.952 85.5 761.5 130.048 761.5 185Z" stroke="#9191E4" stroke-opacity="0.2"/>
<path d="M815.5 261C815.5 315.952 770.952 360.5 716 360.5C661.048 360.5 616.5 315.952 616.5 261C616.5 206.048 661.048 161.5 716 161.5C770.952 161.5 815.5 206.048 815.5 261Z" stroke="#9191E4" stroke-opacity="0.2"/>
<path d="M887.5 185C887.5 239.952 842.952 284.5 788 284.5C733.048 284.5 688.5 239.952 688.5 185C688.5 130.048 733.048 85.5 788 85.5C842.952 85.5 887.5 130.048 887.5 185Z" stroke="#9191E4" stroke-opacity="0.2"/>
<path d="M1003.5 261C1003.5 315.952 958.952 360.5 904 360.5C849.048 360.5 804.5 315.952 804.5 261C804.5 206.048 849.048 161.5 904 161.5C958.952 161.5 1003.5 206.048 1003.5 261Z" stroke="#9191E4" stroke-opacity="0.2"/>
<path d="M1075.5 185C1075.5 239.952 1030.95 284.5 976 284.5C921.048 284.5 876.5 239.952 876.5 185C876.5 130.048 921.048 85.5 976 85.5C1030.95 85.5 1075.5 130.048 1075.5 185Z" stroke="#9191E4" stroke-opacity="0.2"/>
<path d="M1175.5 261C1175.5 315.952 1130.95 360.5 1076 360.5C1021.05 360.5 976.5 315.952 976.5 261C976.5 206.048 1021.05 161.5 1076 161.5C1130.95 161.5 1175.5 206.048 1175.5 261Z" stroke="#9191E4" stroke-opacity="0.2"/>
<path d="M1247.5 185C1247.5 239.952 1202.95 284.5 1148 284.5C1093.05 284.5 1048.5 239.952 1048.5 185C1048.5 130.048 1093.05 85.5 1148 85.5C1202.95 85.5 1247.5 130.048 1247.5 185Z" stroke="#9191E4" stroke-opacity="0.2"/>
<path d="M1367.5 261C1367.5 315.952 1322.95 360.5 1268 360.5C1213.05 360.5 1168.5 315.952 1168.5 261C1168.5 206.048 1213.05 161.5 1268 161.5C1322.95 161.5 1367.5 206.048 1367.5 261Z" stroke="#9191E4" stroke-opacity="0.2"/>
<path d="M1439.5 185C1439.5 239.952 1394.95 284.5 1340 284.5C1285.05 284.5 1240.5 239.952 1240.5 185C1240.5 130.048 1285.05 85.5 1340 85.5C1394.95 85.5 1439.5 130.048 1439.5 185Z" stroke="#9191E4" stroke-opacity="0.2"/>
<rect x="1206.06" y="3.07336" width="245" height="200" rx="16" transform="rotate(-16 1206.06 3.07336)" fill="#C4C4C4" fill-opacity="0.11"/>
<rect x="-36" y="780.531" width="245" height="200" rx="16" transform="rotate(-16 -36 780.531)" fill="#C4C4C4" fill-opacity="0.11"/>
<path d="M203.5 77.7971C203.5 83.7366 200.779 89.4332 195.78 94.6572C190.779 99.8837 183.519 104.613 174.509 108.596C156.489 116.561 131.561 121.5 104 121.5C76.4387 121.5 51.5105 116.561 33.4915 108.596C24.4813 104.613 17.2208 99.8837 12.2198 94.6572C7.2211 89.4332 4.5 83.7366 4.5 77.7971C4.5 71.8576 7.2211 66.161 12.2198 60.937C17.2208 55.7105 24.4813 50.981 33.4915 46.9982C51.5105 39.0333 76.4387 34.0942 104 34.0942C131.561 34.0942 156.489 39.0333 174.509 46.9982C183.519 50.981 190.779 55.7105 195.78 60.937C200.779 66.161 203.5 71.8576 203.5 77.7971Z" stroke="#9191E4" stroke-opacity="0.2"/>
<path d="M275.5 44.2029C275.5 50.1424 272.779 55.839 267.78 61.063C262.779 66.2895 255.519 71.019 246.509 75.0018C228.489 82.9667 203.561 87.9058 176 87.9058C148.439 87.9058 123.511 82.9667 105.491 75.0018C96.4813 71.019 89.2208 66.2895 84.2198 61.063C79.2211 55.839 76.5 50.1424 76.5 44.2029C76.5 38.2634 79.2211 32.5668 84.2198 27.3428C89.2208 22.1163 96.4813 17.3868 105.491 13.404C123.511 5.4391 148.439 0.5 176 0.5C203.561 0.5 228.489 5.4391 246.509 13.404C255.519 17.3868 262.779 22.1163 267.78 27.3428C272.779 32.5668 275.5 38.2634 275.5 44.2029Z" stroke="#9191E4" stroke-opacity="0.2"/>
<path d="M367.5 77.7971C367.5 83.7366 364.779 89.4332 359.78 94.6572C354.779 99.8837 347.519 104.613 338.509 108.596C320.489 116.561 295.561 121.5 268 121.5C240.439 121.5 215.511 116.561 197.491 108.596C188.481 104.613 181.221 99.8837 176.22 94.6572C171.221 89.4332 168.5 83.7366 168.5 77.7971C168.5 71.8576 171.221 66.161 176.22 60.937C181.221 55.7105 188.481 50.981 197.491 46.9982C215.511 39.0333 240.439 34.0942 268 34.0942C295.561 34.0942 320.489 39.0333 338.509 46.9982C347.519 50.981 354.779 55.7105 359.78 60.937C364.779 66.161 367.5 71.8576 367.5 77.7971Z" stroke="#9191E4" stroke-opacity="0.2"/>
<path d="M439.5 44.2029C439.5 50.1424 436.779 55.839 431.78 61.063C426.779 66.2895 419.519 71.019 410.509 75.0018C392.489 82.9667 367.561 87.9058 340 87.9058C312.439 87.9058 287.511 82.9667 269.491 75.0018C260.481 71.019 253.221 66.2895 248.22 61.063C243.221 55.839 240.5 50.1424 240.5 44.2029C240.5 38.2634 243.221 32.5668 248.22 27.3428C253.221 22.1163 260.481 17.3868 269.491 13.404C287.511 5.4391 312.439 0.5 340 0.5C367.561 0.5 392.489 5.4391 410.509 13.404C419.519 17.3868 426.779 22.1163 431.78 27.3428C436.779 32.5668 439.5 38.2634 439.5 44.2029Z" stroke="#9191E4" stroke-opacity="0.2"/>
<path d="M531.5 81.7971C531.5 87.7366 528.779 93.4332 523.78 98.6572C518.779 103.884 511.519 108.613 502.509 112.596C484.489 120.561 459.561 125.5 432 125.5C404.439 125.5 379.511 120.561 361.491 112.596C352.481 108.613 345.221 103.884 340.22 98.6572C335.221 93.4332 332.5 87.7366 332.5 81.7971C332.5 75.8576 335.221 70.161 340.22 64.937C345.221 59.7105 352.481 54.981 361.491 50.9982C379.511 43.0333 404.439 38.0942 432 38.0942C459.561 38.0942 484.489 43.0333 502.509 50.9982C511.519 54.981 518.779 59.7105 523.78 64.937C528.779 70.161 531.5 75.8576 531.5 81.7971Z" stroke="#9191E4" stroke-opacity="0.2"/>
<path d="M603.5 48.2029C603.5 54.1424 600.779 59.839 595.78 65.063C590.779 70.2895 583.519 75.019 574.509 79.0018C556.489 86.9667 531.561 91.9058 504 91.9058C476.439 91.9058 451.511 86.9667 433.491 79.0018C424.481 75.019 417.221 70.2895 412.22 65.063C407.221 59.839 404.5 54.1424 404.5 48.2029C404.5 42.2634 407.221 36.5668 412.22 31.3428C417.221 26.1163 424.481 21.3868 433.491 17.404C451.511 9.4391 476.439 4.5 504 4.5C531.561 4.5 556.489 9.4391 574.509 17.404C583.519 21.3868 590.779 26.1163 595.78 31.3428C600.779 36.5668 603.5 42.2634 603.5 48.2029Z" stroke="#9191E4" stroke-opacity="0.2"/>
<path d="M689.5 81.7971C689.5 87.7366 686.779 93.4332 681.78 98.6572C676.779 103.884 669.519 108.613 660.509 112.596C642.489 120.561 617.561 125.5 590 125.5C562.439 125.5 537.511 120.561 519.491 112.596C510.481 108.613 503.221 103.884 498.22 98.6572C493.221 93.4332 490.5 87.7366 490.5 81.7971C490.5 75.8576 493.221 70.161 498.22 64.937C503.221 59.7105 510.481 54.981 519.491 50.9982C537.511 43.0333 562.439 38.0942 590 38.0942C617.561 38.0942 642.489 43.0333 660.509 50.9982C669.519 54.981 676.779 59.7105 681.78 64.937C686.779 70.161 689.5 75.8576 689.5 81.7971Z" stroke="#9191E4" stroke-opacity="0.2"/>
<path d="M761.5 48.2029C761.5 54.1424 758.779 59.839 753.78 65.063C748.779 70.2895 741.519 75.019 732.509 79.0018C714.489 86.9667 689.561 91.9058 662 91.9058C634.439 91.9058 609.511 86.9667 591.491 79.0018C582.481 75.019 575.221 70.2895 570.22 65.063C565.221 59.839 562.5 54.1424 562.5 48.2029C562.5 42.2634 565.221 36.5668 570.22 31.3428C575.221 26.1163 582.481 21.3868 591.491 17.404C609.511 9.4391 634.439 4.5 662 4.5C689.561 4.5 714.489 9.4391 732.509 17.404C741.519 21.3868 748.779 26.1163 753.78 31.3428C758.779 36.5668 761.5 42.2634 761.5 48.2029Z" stroke="#9191E4" stroke-opacity="0.2"/>
<path d="M839.5 81.7971C839.5 87.7366 836.779 93.4332 831.78 98.6572C826.779 103.884 819.519 108.613 810.509 112.596C792.489 120.561 767.561 125.5 740 125.5C712.439 125.5 687.511 120.561 669.491 112.596C660.481 108.613 653.221 103.884 648.22 98.6572C643.221 93.4332 640.5 87.7366 640.5 81.7971C640.5 75.8576 643.221 70.161 648.22 64.937C653.221 59.7105 660.481 54.981 669.491 50.9982C687.511 43.0333 712.439 38.0942 740 38.0942C767.561 38.0942 792.489 43.0333 810.509 50.9982C819.519 54.981 826.779 59.7105 831.78 64.937C836.779 70.161 839.5 75.8576 839.5 81.7971Z" stroke="#9191E4" stroke-opacity="0.2"/>
<path d="M911.5 48.2029C911.5 54.1424 908.779 59.839 903.78 65.063C898.779 70.2895 891.519 75.019 882.509 79.0018C864.489 86.9667 839.561 91.9058 812 91.9058C784.439 91.9058 759.511 86.9667 741.491 79.0018C732.481 75.019 725.221 70.2895 720.22 65.063C715.221 59.839 712.5 54.1424 712.5 48.2029C712.5 42.2634 715.221 36.5668 720.22 31.3428C725.221 26.1163 732.481 21.3868 741.491 17.404C759.511 9.4391 784.439 4.5 812 4.5C839.561 4.5 864.489 9.4391 882.509 17.404C891.519 21.3868 898.779 26.1163 903.78 31.3428C908.779 36.5668 911.5 42.2634 911.5 48.2029Z" stroke="#9191E4" stroke-opacity="0.2"/>
<path d="M987.5 81.7971C987.5 87.7366 984.779 93.4332 979.78 98.6572C974.779 103.884 967.519 108.613 958.509 112.596C940.489 120.561 915.561 125.5 888 125.5C860.439 125.5 835.511 120.561 817.491 112.596C808.481 108.613 801.221 103.884 796.22 98.6572C791.221 93.4332 788.5 87.7366 788.5 81.7971C788.5 75.8576 791.221 70.161 796.22 64.937C801.221 59.7105 808.481 54.981 817.491 50.9982C835.511 43.0333 860.439 38.0942 888 38.0942C915.561 38.0942 940.489 43.0333 958.509 50.9982C967.519 54.981 974.779 59.7105 979.78 64.937C984.779 70.161 987.5 75.8576 987.5 81.7971Z" stroke="#9191E4" stroke-opacity="0.2"/>
<path d="M1059.5 48.2029C1059.5 54.1424 1056.78 59.839 1051.78 65.063C1046.78 70.2895 1039.52 75.019 1030.51 79.0018C1012.49 86.9667 987.561 91.9058 960 91.9058C932.439 91.9058 907.511 86.9667 889.491 79.0018C880.481 75.019 873.221 70.2895 868.22 65.063C863.221 59.839 860.5 54.1424 860.5 48.2029C860.5 42.2634 863.221 36.5668 868.22 31.3428C873.221 26.1163 880.481 21.3868 889.491 17.404C907.511 9.4391 932.439 4.5 960 4.5C987.561 4.5 1012.49 9.4391 1030.51 17.404C1039.52 21.3868 1046.78 26.1163 1051.78 31.3428C1056.78 36.5668 1059.5 42.2634 1059.5 48.2029Z" stroke="#9191E4" stroke-opacity="0.2"/>
</svg>
