<svg width="22" height="17" viewBox="0 0 22 17" fill="none" xmlns="http://www.w3.org/2000/svg">
<path d="M16 1H6C3.23858 1 1 2.66407 1 4.7168V12.1504C1 14.2031 3.23858 15.8672 6 15.8672H16C18.7614 15.8672 21 14.2031 21 12.1504V4.7168C21 2.66407 18.7614 1 16 1Z" stroke="#F8F6FD" stroke-width="2" stroke-linecap="round" stroke-linejoin="round"/>
<path d="M14.9999 7.96536C15.1234 8.58398 14.9812 9.21578 14.5937 9.77089C14.2062 10.326 13.5931 10.7761 12.8416 11.0573C12.0901 11.3385 11.2384 11.4363 10.4077 11.337C9.57707 11.2376 8.80971 10.9461 8.21479 10.5039C7.61987 10.0617 7.22768 9.49129 7.09402 8.87385C6.96035 8.25641 7.09202 7.62336 7.47028 7.06474C7.84854 6.50612 8.45414 6.05039 9.20093 5.76235C9.94773 5.47432 10.7977 5.36865 11.6299 5.46039C12.4789 5.55396 13.2648 5.848 13.8716 6.29907C14.4785 6.75015 14.8741 7.33434 14.9999 7.96536Z" stroke="#F8F6FD" stroke-width="2" stroke-linecap="round" stroke-linejoin="round"/>
<path d="M16.5 4.3457H16.51" stroke="#F8F6FD" stroke-width="2" stroke-linecap="round" stroke-linejoin="round"/>
</svg>
