<svg width="22" height="17" viewBox="0 0 22 17" fill="none" xmlns="http://www.w3.org/2000/svg">
<path d="M15 5.69482C16.5913 5.69482 18.1174 6.18946 19.2426 7.06991C20.3679 7.95036 21 9.1445 21 10.3896V15.8669H17V10.3896C17 9.9746 16.7893 9.57655 16.4142 9.28307C16.0391 8.98958 15.5304 8.82471 15 8.82471C14.4696 8.82471 13.9609 8.98958 13.5858 9.28307C13.2107 9.57655 13 9.9746 13 10.3896V15.8669H9V10.3896C9 9.1445 9.63214 7.95036 10.7574 7.06991C11.8826 6.18946 13.4087 5.69482 15 5.69482V5.69482Z" stroke="#F8F6FD" stroke-width="2" stroke-linecap="round" stroke-linejoin="round"/>
<path d="M5 6.47705H1V15.8667H5V6.47705Z" stroke="#F8F6FD" stroke-width="2" stroke-linecap="round" stroke-linejoin="round"/>
<path d="M3 4.12988C4.10457 4.12988 5 3.42923 5 2.56494C5 1.70065 4.10457 1 3 1C1.89543 1 1 1.70065 1 2.56494C1 3.42923 1.89543 4.12988 3 4.12988Z" stroke="#F8F6FD" stroke-width="2" stroke-linecap="round" stroke-linejoin="round"/>
</svg>
