<svg width="100" height="50" viewBox="0 0 164 67" fill="none" xmlns="http://www.w3.org/2000/svg">
<path d="M27.25 22.875C27.25 22.875 23.5 6.00001 12.25 11.625C1 17.25 27.25 22.875 27.25 22.875ZM27.25 22.875C27.25 22.875 31 6.00001 42.25 11.625C53.5 17.25 27.25 22.875 27.25 22.875ZM27.25 22.875V62.25M4.75 32.25V62.25H49.75V32.25H4.75ZM1 22.875V32.25H53.5V22.875H1Z" stroke="#F8F6FD" stroke-width="2" stroke-linecap="round" stroke-linejoin="round"/>
<path d="M81.314 17.2C87.0313 17.2 91.5113 18.5653 94.754 21.296C97.9967 24.0267 99.618 27.7813 99.618 32.56C99.618 37.3387 97.9967 41.0933 94.754 43.824C91.5113 46.512 87.0313 47.856 81.314 47.856H69.282V62H64.546V17.2H81.314ZM81.186 43.696C85.6233 43.696 89.0153 42.736 91.362 40.816C93.7087 38.8533 94.882 36.1013 94.882 32.56C94.882 28.9333 93.7087 26.16 91.362 24.24C89.0153 22.2773 85.6233 21.296 81.186 21.296H69.282V43.696H81.186ZM121.642 28.08C126.037 28.08 129.407 29.1893 131.754 31.408C134.101 33.584 135.274 36.8267 135.274 41.136V62H130.922V56.752C129.898 58.5013 128.383 59.8667 126.378 60.848C124.415 61.8293 122.069 62.32 119.338 62.32C115.583 62.32 112.597 61.424 110.378 59.632C108.159 57.84 107.05 55.472 107.05 52.528C107.05 49.6693 108.074 47.3653 110.122 45.616C112.213 43.8667 115.519 42.992 120.042 42.992H130.73V40.944C130.73 38.0427 129.919 35.8453 128.298 34.352C126.677 32.816 124.309 32.048 121.194 32.048C119.061 32.048 117.013 32.4107 115.05 33.136C113.087 33.8187 111.402 34.7787 109.994 36.016L107.946 32.624C109.653 31.1733 111.701 30.064 114.09 29.296C116.479 28.4853 118.997 28.08 121.642 28.08ZM120.042 58.736C122.602 58.736 124.799 58.16 126.634 57.008C128.469 55.8133 129.834 54.1067 130.73 51.888V46.384H120.17C114.41 46.384 111.53 48.3893 111.53 52.4C111.53 54.3627 112.277 55.92 113.77 57.072C115.263 58.1813 117.354 58.736 120.042 58.736ZM148.896 14.512H153.44V62H148.896V14.512Z" fill="#F8F6FD"/>
</svg>
