<svg width="22" height="17" viewBox="0 0 24 17" fill="none" xmlns="http://www.w3.org/2000/svg">
<path d="M23 1.00833C22.0424 1.568 20.9821 1.99605 19.86 2.27601C19.2577 1.70225 18.4573 1.29558 17.567 1.11101C16.6767 0.926438 15.7395 0.972866 14.8821 1.24401C14.0247 1.51516 13.2884 1.99795 12.773 2.62708C12.2575 3.25621 11.9877 4.00132 12 4.76165V5.5902C10.2426 5.62795 8.50127 5.30502 6.93101 4.65017C5.36074 3.99531 4.01032 3.02886 3 1.83688C3 1.83688 -1 9.2938 8 12.608C5.94053 13.7663 3.48716 14.3471 1 14.2651C10 18.4078 21 14.2651 21 4.73679C20.9991 4.50601 20.9723 4.27579 20.92 4.0491C21.9406 3.21516 22.6608 2.16226 23 1.00833Z" stroke="#F8F6FD" stroke-width="2" stroke-linecap="round" stroke-linejoin="round"/>
</svg>
